<?xml version="1.0" encoding="UTF-8" standalone="no"?>
<svg
   xmlns:dc="http://purl.org/dc/elements/1.1/"
   xmlns:cc="http://creativecommons.org/ns#"
   xmlns:rdf="http://www.w3.org/1999/02/22-rdf-syntax-ns#"
   xmlns:svg="http://www.w3.org/2000/svg"
   xmlns="http://www.w3.org/2000/svg"
   xmlns:sodipodi="http://sodipodi.sourceforge.net/DTD/sodipodi-0.dtd"
   xmlns:inkscape="http://www.inkscape.org/namespaces/inkscape"
   width="29.448"
   height="32"
   viewBox="0 0 29.448001 32"
   version="1.1"
   id="svg614"
   sodipodi:docname="business.svg"
   inkscape:version="0.92.3 (2405546, 2018-03-11)"
   style="fill:none">
  <metadata
     id="metadata618">
    <rdf:RDF>
      <cc:Work
         rdf:about="">
        <dc:format>image/svg+xml</dc:format>
        <dc:type
           rdf:resource="http://purl.org/dc/dcmitype/StillImage" />
        <dc:title></dc:title>
      </cc:Work>
    </rdf:RDF>
  </metadata>
  <sodipodi:namedview
     pagecolor="#ffffff"
     bordercolor="#666666"
     borderopacity="1"
     objecttolerance="10"
     gridtolerance="10"
     guidetolerance="10"
     inkscape:pageopacity="0"
     inkscape:pageshadow="2"
     inkscape:window-width="1366"
     inkscape:window-height="704"
     id="namedview616"
     showgrid="false"
     inkscape:zoom="1.9153768"
     inkscape:cx="74.969312"
     inkscape:cy="-72.279162"
     inkscape:window-x="1920"
     inkscape:window-y="27"
     inkscape:window-maximized="1"
     inkscape:current-layer="svg614" />
  <g
     id="g5199"
     transform="translate(-282.276,-1087)">
    <path
       id="path252"
       d="m 311.695,1116.22 c -0.02,-0.14 -0.053,-0.27 -0.098,-0.4 -0.322,-1.24 -1.062,-3.5 -1.397,-4.52 -0.037,-0.17 -0.094,-0.34 -0.168,-0.5 0,-0.01 0,-0.01 0,-0.01 -0.204,-0.44 -0.539,-0.81 -0.952,-1.05 -0.025,-0.02 -0.078,-0.05 -0.147,-0.08 -0.029,-0.02 -0.057,-0.03 -0.086,-0.04 -0.813,-0.39 -3.31,-1.39 -3.31,-1.39 -1.251,-0.54 -2.542,-1 -3.862,-1.47 -0.237,0.98 -2.472,7.49 -2.828,8.4 l -0.282,-6.05 c 0.094,-0.14 0.159,-0.31 0.233,-0.46 l 0.932,-1.85 c -0.658,0.55 -1.643,0.9 -2.742,0.9 -1.075,0 -2.04,-0.33 -2.698,-0.86 l 0.916,1.81 c 0.073,0.15 0.139,0.32 0.233,0.46 l -0.282,6.05 c -0.36,-0.91 -2.599,-7.42 -2.832,-8.4 -1.32,0.47 -2.612,0.93 -3.862,1.47 0,0 -2.497,1 -3.31,1.38 -0.029,0.01 -0.057,0.03 -0.086,0.04 -0.069,0.03 -0.123,0.06 -0.147,0.08 -0.413,0.25 -0.748,0.62 -0.952,1.06 v 0.01 c -0.074,0.16 -0.131,0.33 -0.168,0.5 -0.335,1.02 -1.075,3.28 -1.397,4.52 -0.045,0.13 -0.078,0.26 -0.099,0.4 -0.02,0.12 -0.028,0.24 -0.028,0.37 0,1.33 1.079,2.41 2.411,2.41 h 2.301 c 3.294,0 6.587,0 9.881,0 0.045,0 0.086,0 0.131,0 0.045,0 0.086,0 0.131,0 3.294,0 6.587,0 9.881,0 h 2.301 c 1.332,0 2.411,-1.08 2.411,-2.41 0,-0.13 -0.012,-0.25 -0.029,-0.37 z"
       inkscape:connector-curvature="0"
       style="fill:#535e73" />
    <path
       id="path254"
       d="m 303.293,1095.56 c 0,-0.42 0.082,-1.97 0.082,-2.32 0.004,-3.45 -2.791,-6.24 -6.236,-6.24 -0.004,0 -0.008,0 -0.012,0 -0.004,0 -0.009,0 -0.013,0 -0.041,0 -0.077,0 -0.118,0 -0.041,0 -0.078,0 -0.119,0 -0.004,0 -0.008,0 -0.012,0 -0.004,0 -0.008,0 -0.012,0 -3.445,0 -6.24,2.8 -6.24,6.24 0,0.36 0.081,1.9 0.081,2.33 -0.151,0 -1.549,-0.33 -1.397,1.34 0.318,3.55 1.671,2.86 1.712,2.86 0.666,2.14 1.7,3.5 2.713,4.37 1.582,1.36 3.114,1.51 3.143,1.51 0.045,0 0.086,0 0.131,0 0.041,0 0.086,0 0.131,0 0.024,0 1.548,-0.15 3.122,-1.49 1.017,-0.87 2.059,-2.24 2.73,-4.39 0.04,0 1.393,0.69 1.712,-2.86 0.151,-1.68 -1.246,-1.34 -1.398,-1.35 z"
       inkscape:connector-curvature="0"
       style="fill:#535e73" />
  </g>
  <defs
     id="defs612">
    <clipPath
       id="clip0">
      <rect
         width="16"
         height="16"
         transform="translate(0,312)"
         id="rect540"
         x="0"
         y="0"
         style="fill:#ffffff" />
    </clipPath>
    <clipPath
       id="clip1">
      <rect
         width="16"
         height="16"
         transform="matrix(-1,0,0,1,16,168)"
         id="rect543"
         x="0"
         y="0"
         style="fill:#ffffff" />
    </clipPath>
    <clipPath
       id="clip2">
      <rect
         width="16"
         height="16"
         transform="translate(0,240)"
         id="rect546"
         x="0"
         y="0"
         style="fill:#ffffff" />
    </clipPath>
    <clipPath
       id="clip3">
      <rect
         width="16"
         height="16"
         transform="translate(0,456)"
         id="rect549"
         x="0"
         y="0"
         style="fill:#ffffff" />
    </clipPath>
    <clipPath
       id="clip4">
      <rect
         width="32"
         height="32"
         transform="translate(281,207)"
         id="rect552"
         x="0"
         y="0"
         style="fill:#ffffff" />
    </clipPath>
    <clipPath
       id="clip5">
      <rect
         width="32"
         height="32"
         transform="translate(281,372)"
         id="rect555"
         x="0"
         y="0"
         style="fill:#ffffff" />
    </clipPath>
    <clipPath
       id="clip6">
      <rect
         width="32"
         height="32"
         transform="translate(281,482)"
         id="rect558"
         x="0"
         y="0"
         style="fill:#ffffff" />
    </clipPath>
    <clipPath
       id="clip7">
      <rect
         width="32"
         height="32"
         transform="translate(281,537)"
         id="rect561"
         x="0"
         y="0"
         style="fill:#ffffff" />
    </clipPath>
    <clipPath
       id="clip8">
      <rect
         width="32"
         height="32"
         transform="translate(281,647)"
         id="rect564"
         x="0"
         y="0"
         style="fill:#ffffff" />
    </clipPath>
    <clipPath
       id="clip9">
      <rect
         width="32"
         height="32"
         transform="translate(281,702)"
         id="rect567"
         x="0"
         y="0"
         style="fill:#ffffff" />
    </clipPath>
    <clipPath
       id="clip10">
      <rect
         width="32"
         height="32"
         transform="translate(281,1032)"
         id="rect570"
         x="0"
         y="0"
         style="fill:#ffffff" />
    </clipPath>
    <clipPath
       id="clip11">
      <rect
         width="32"
         height="32"
         transform="translate(281,1142)"
         id="rect573"
         x="0"
         y="0"
         style="fill:#ffffff" />
    </clipPath>
    <clipPath
       id="clip12">
      <rect
         width="32"
         height="32"
         transform="translate(281,1197)"
         id="rect576"
         x="0"
         y="0"
         style="fill:#ffffff" />
    </clipPath>
    <clipPath
       id="clip13">
      <rect
         width="32"
         height="32"
         transform="translate(281,1252)"
         id="rect579"
         x="0"
         y="0"
         style="fill:#ffffff" />
    </clipPath>
    <clipPath
       id="clip14">
      <rect
         width="32"
         height="32"
         transform="translate(194,207)"
         id="rect582"
         x="0"
         y="0"
         style="fill:#ffffff" />
    </clipPath>
    <clipPath
       id="clip15">
      <rect
         width="32"
         height="32"
         transform="translate(194,372)"
         id="rect585"
         x="0"
         y="0"
         style="fill:#ffffff" />
    </clipPath>
    <clipPath
       id="clip16">
      <rect
         width="32"
         height="32"
         transform="translate(194,482)"
         id="rect588"
         x="0"
         y="0"
         style="fill:#ffffff" />
    </clipPath>
    <clipPath
       id="clip17">
      <rect
         width="32"
         height="32"
         transform="translate(194,537)"
         id="rect591"
         x="0"
         y="0"
         style="fill:#ffffff" />
    </clipPath>
    <clipPath
       id="clip18">
      <rect
         width="32"
         height="32"
         transform="translate(194,647)"
         id="rect594"
         x="0"
         y="0"
         style="fill:#ffffff" />
    </clipPath>
    <clipPath
       id="clip19">
      <rect
         width="32"
         height="32"
         transform="translate(194,702)"
         id="rect597"
         x="0"
         y="0"
         style="fill:#ffffff" />
    </clipPath>
    <clipPath
       id="clip20">
      <rect
         width="32"
         height="32"
         transform="translate(194,1032)"
         id="rect600"
         x="0"
         y="0"
         style="fill:#ffffff" />
    </clipPath>
    <clipPath
       id="clip21">
      <rect
         width="32"
         height="32"
         transform="translate(194,1142)"
         id="rect603"
         x="0"
         y="0"
         style="fill:#ffffff" />
    </clipPath>
    <clipPath
       id="clip22">
      <rect
         width="32"
         height="32"
         transform="translate(194,1197)"
         id="rect606"
         x="0"
         y="0"
         style="fill:#ffffff" />
    </clipPath>
    <clipPath
       id="clip23">
      <rect
         width="32"
         height="32"
         transform="translate(194,1252)"
         id="rect609"
         x="0"
         y="0"
         style="fill:#ffffff" />
    </clipPath>
    <clipPath
       id="clip13-3">
      <rect
         style="fill:#ffffff"
         y="0"
         x="0"
         width="32"
         height="32"
         transform="translate(281,1252)"
         id="rect579-6" />
    </clipPath>
    <clipPath
       id="clip12-7">
      <rect
         style="fill:#ffffff"
         y="0"
         x="0"
         width="32"
         height="32"
         transform="translate(281,1197)"
         id="rect576-5" />
    </clipPath>
    <clipPath
       id="clip11-3">
      <rect
         style="fill:#ffffff"
         y="0"
         x="0"
         width="32"
         height="32"
         transform="translate(281,1142)"
         id="rect573-5" />
    </clipPath>
    <clipPath
       id="clip10-6">
      <rect
         style="fill:#ffffff"
         y="0"
         x="0"
         width="32"
         height="32"
         transform="translate(281,1032)"
         id="rect570-2" />
    </clipPath>
    <clipPath
       id="clip9-9">
      <rect
         style="fill:#ffffff"
         y="0"
         x="0"
         width="32"
         height="32"
         transform="translate(281,702)"
         id="rect567-1" />
    </clipPath>
    <clipPath
       id="clip8-2">
      <rect
         style="fill:#ffffff"
         y="0"
         x="0"
         width="32"
         height="32"
         transform="translate(281,647)"
         id="rect564-7" />
    </clipPath>
    <clipPath
       id="clip7-0">
      <rect
         style="fill:#ffffff"
         y="0"
         x="0"
         width="32"
         height="32"
         transform="translate(281,537)"
         id="rect561-9" />
    </clipPath>
    <clipPath
       id="clip6-3">
      <rect
         style="fill:#ffffff"
         y="0"
         x="0"
         width="32"
         height="32"
         transform="translate(281,482)"
         id="rect558-6" />
    </clipPath>
    <clipPath
       id="clip5-0">
      <rect
         style="fill:#ffffff"
         y="0"
         x="0"
         width="32"
         height="32"
         transform="translate(281,372)"
         id="rect555-6" />
    </clipPath>
    <clipPath
       id="clip4-2">
      <rect
         style="fill:#ffffff"
         y="0"
         x="0"
         width="32"
         height="32"
         transform="translate(281,207)"
         id="rect552-6" />
    </clipPath>
  </defs>
</svg>
