<?xml version="1.0" encoding="UTF-8" standalone="no"?>
<svg
   xmlns:dc="http://purl.org/dc/elements/1.1/"
   xmlns:cc="http://creativecommons.org/ns#"
   xmlns:rdf="http://www.w3.org/1999/02/22-rdf-syntax-ns#"
   xmlns:svg="http://www.w3.org/2000/svg"
   xmlns="http://www.w3.org/2000/svg"
   xmlns:sodipodi="http://sodipodi.sourceforge.net/DTD/sodipodi-0.dtd"
   xmlns:inkscape="http://www.inkscape.org/namespaces/inkscape"
   width="32"
   height="31.997"
   viewBox="0 0 32.000001 31.997"
   version="1.1"
   id="svg614"
   sodipodi:docname="design_w.svg"
   inkscape:version="0.92.3 (2405546, 2018-03-11)"
   style="fill:none">
  <metadata
     id="metadata618">
    <rdf:RDF>
      <cc:Work
         rdf:about="">
        <dc:format>image/svg+xml</dc:format>
        <dc:type
           rdf:resource="http://purl.org/dc/dcmitype/StillImage" />
        <dc:title></dc:title>
      </cc:Work>
    </rdf:RDF>
  </metadata>
  <sodipodi:namedview
     pagecolor="#ffffff"
     bordercolor="#666666"
     borderopacity="1"
     objecttolerance="10"
     gridtolerance="10"
     guidetolerance="10"
     inkscape:pageopacity="0"
     inkscape:pageshadow="2"
     inkscape:window-width="1366"
     inkscape:window-height="704"
     id="namedview616"
     showgrid="false"
     inkscape:zoom="1.9153768"
     inkscape:cx="8.287245"
     inkscape:cy="-60.492386"
     inkscape:window-x="1920"
     inkscape:window-y="27"
     inkscape:window-maximized="1"
     inkscape:current-layer="svg614" />
  <g
     clip-path="url(#clip9)"
     id="g176"
     transform="translate(-281,-702.001)"
     style="fill:#ffffff">
    <path
       d="m 297.001,709.564 c 0.518,0 0.937,-0.419 0.937,-0.937 0,-0.518 -0.419,-0.938 -0.937,-0.938 -0.518,0 -0.938,0.42 -0.938,0.938 0,0.518 0.42,0.937 0.938,0.937 z"
       id="path164"
       inkscape:connector-curvature="0"
       style="fill:#ffffff" />
    <path
       d="m 296.063,728.315 c 1.036,0 1.875,-0.839 1.875,-1.875 0,-1.035 -0.839,-1.875 -1.875,-1.875 -1.035,0 -1.875,0.84 -1.875,1.875 0,1.036 0.84,1.875 1.875,1.875 z"
       id="path166"
       inkscape:connector-curvature="0"
       style="fill:#ffffff" />
    <path
       d="m 288.563,722.69 c 1.035,0 1.875,-0.84 1.875,-1.875 0,-1.036 -0.84,-1.875 -1.875,-1.875 -1.036,0 -1.875,0.839 -1.875,1.875 0,1.035 0.839,1.875 1.875,1.875 z"
       id="path168"
       inkscape:connector-curvature="0"
       style="fill:#ffffff" />
    <path
       d="m 289.5,713.315 c 0.518,0 0.938,-0.42 0.938,-0.938 0,-0.518 -0.42,-0.938 -0.938,-0.938 -0.517,0 -0.937,0.42 -0.937,0.938 0,0.518 0.42,0.938 0.937,0.938 z"
       id="path170"
       inkscape:connector-curvature="0"
       style="fill:#ffffff" />
    <path
       d="m 297.001,702.001 c -8.916,0 -16.001,7.306 -16.001,16.001 0,9.024 7.389,15.996 15.722,15.996 3.487,0 6.453,-2.592 6.803,-5.907 0.126,-1.189 -0.066,-2.384 -0.56,-3.457 -0.427,-0.926 -0.079,-1.766 0.388,-2.243 0.467,-0.478 1.302,-0.84 2.238,-0.434 1.754,0.84 2.8,0.808 3.668,0.641 2.159,-0.426 3.766,-2.476 3.741,-4.77 -0.094,-8.692 -7.305,-15.827 -15.999,-15.827 z m -7.501,7.563 c 1.551,0 2.813,1.262 2.813,2.813 0,1.551 -1.262,2.813 -2.813,2.813 -1.551,0 -2.812,-1.262 -2.812,-2.813 0,-1.551 1.261,-2.813 2.812,-2.813 z m -0.937,15.001 c -2.067,0 -3.75,-1.682 -3.75,-3.75 0,-2.068 1.683,-3.75 3.75,-3.75 2.067,0 3.75,1.682 3.75,3.75 0,2.068 -1.683,3.75 -3.75,3.75 z m 7.5,5.625 c -2.067,0 -3.75,-1.682 -3.75,-3.75 0,-2.068 1.683,-3.75 3.75,-3.75 2.068,0 3.75,1.682 3.75,3.75 0,2.068 -1.682,3.75 -3.75,3.75 z m 0.938,-18.751 c -1.551,0 -2.813,-1.261 -2.813,-2.812 0,-1.551 1.262,-2.813 2.813,-2.813 1.551,0 2.812,1.262 2.812,2.813 0,1.551 -1.261,2.812 -2.812,2.812 z m 7.5,3.751 c -1.551,0 -2.813,-1.262 -2.813,-2.813 0,-1.551 1.262,-2.813 2.813,-2.813 1.551,0 2.813,1.262 2.813,2.813 0,1.551 -1.262,2.813 -2.813,2.813 z"
       id="path172"
       inkscape:connector-curvature="0"
       style="fill:#ffffff" />
    <path
       d="m 304.501,713.315 c 0.518,0 0.938,-0.42 0.938,-0.938 0,-0.518 -0.42,-0.938 -0.938,-0.938 -0.518,0 -0.937,0.42 -0.937,0.938 0,0.518 0.419,0.938 0.937,0.938 z"
       id="path174"
       inkscape:connector-curvature="0"
       style="fill:#ffffff" />
  </g>
  <defs
     id="defs612">
    <clipPath
       id="clip0">
      <rect
         width="16"
         height="16"
         transform="translate(0,312)"
         id="rect540"
         x="0"
         y="0"
         style="fill:#ffffff" />
    </clipPath>
    <clipPath
       id="clip1">
      <rect
         width="16"
         height="16"
         transform="matrix(-1,0,0,1,16,168)"
         id="rect543"
         x="0"
         y="0"
         style="fill:#ffffff" />
    </clipPath>
    <clipPath
       id="clip2">
      <rect
         width="16"
         height="16"
         transform="translate(0,240)"
         id="rect546"
         x="0"
         y="0"
         style="fill:#ffffff" />
    </clipPath>
    <clipPath
       id="clip3">
      <rect
         width="16"
         height="16"
         transform="translate(0,456)"
         id="rect549"
         x="0"
         y="0"
         style="fill:#ffffff" />
    </clipPath>
    <clipPath
       id="clip4">
      <rect
         width="32"
         height="32"
         transform="translate(281,207)"
         id="rect552"
         x="0"
         y="0"
         style="fill:#ffffff" />
    </clipPath>
    <clipPath
       id="clip5">
      <rect
         width="32"
         height="32"
         transform="translate(281,372)"
         id="rect555"
         x="0"
         y="0"
         style="fill:#ffffff" />
    </clipPath>
    <clipPath
       id="clip6">
      <rect
         width="32"
         height="32"
         transform="translate(281,482)"
         id="rect558"
         x="0"
         y="0"
         style="fill:#ffffff" />
    </clipPath>
    <clipPath
       id="clip7">
      <rect
         width="32"
         height="32"
         transform="translate(281,537)"
         id="rect561"
         x="0"
         y="0"
         style="fill:#ffffff" />
    </clipPath>
    <clipPath
       id="clip8">
      <rect
         width="32"
         height="32"
         transform="translate(281,647)"
         id="rect564"
         x="0"
         y="0"
         style="fill:#ffffff" />
    </clipPath>
    <clipPath
       id="clip9">
      <rect
         width="32"
         height="32"
         transform="translate(281,702)"
         id="rect567"
         x="0"
         y="0"
         style="fill:#ffffff" />
    </clipPath>
    <clipPath
       id="clip10">
      <rect
         width="32"
         height="32"
         transform="translate(281,1032)"
         id="rect570"
         x="0"
         y="0"
         style="fill:#ffffff" />
    </clipPath>
    <clipPath
       id="clip11">
      <rect
         width="32"
         height="32"
         transform="translate(281,1142)"
         id="rect573"
         x="0"
         y="0"
         style="fill:#ffffff" />
    </clipPath>
    <clipPath
       id="clip12">
      <rect
         width="32"
         height="32"
         transform="translate(281,1197)"
         id="rect576"
         x="0"
         y="0"
         style="fill:#ffffff" />
    </clipPath>
    <clipPath
       id="clip13">
      <rect
         width="32"
         height="32"
         transform="translate(281,1252)"
         id="rect579"
         x="0"
         y="0"
         style="fill:#ffffff" />
    </clipPath>
    <clipPath
       id="clip14">
      <rect
         width="32"
         height="32"
         transform="translate(194,207)"
         id="rect582"
         x="0"
         y="0"
         style="fill:#ffffff" />
    </clipPath>
    <clipPath
       id="clip15">
      <rect
         width="32"
         height="32"
         transform="translate(194,372)"
         id="rect585"
         x="0"
         y="0"
         style="fill:#ffffff" />
    </clipPath>
    <clipPath
       id="clip16">
      <rect
         width="32"
         height="32"
         transform="translate(194,482)"
         id="rect588"
         x="0"
         y="0"
         style="fill:#ffffff" />
    </clipPath>
    <clipPath
       id="clip17">
      <rect
         width="32"
         height="32"
         transform="translate(194,537)"
         id="rect591"
         x="0"
         y="0"
         style="fill:#ffffff" />
    </clipPath>
    <clipPath
       id="clip18">
      <rect
         width="32"
         height="32"
         transform="translate(194,647)"
         id="rect594"
         x="0"
         y="0"
         style="fill:#ffffff" />
    </clipPath>
    <clipPath
       id="clip19">
      <rect
         width="32"
         height="32"
         transform="translate(194,702)"
         id="rect597"
         x="0"
         y="0"
         style="fill:#ffffff" />
    </clipPath>
    <clipPath
       id="clip20">
      <rect
         width="32"
         height="32"
         transform="translate(194,1032)"
         id="rect600"
         x="0"
         y="0"
         style="fill:#ffffff" />
    </clipPath>
    <clipPath
       id="clip21">
      <rect
         width="32"
         height="32"
         transform="translate(194,1142)"
         id="rect603"
         x="0"
         y="0"
         style="fill:#ffffff" />
    </clipPath>
    <clipPath
       id="clip22">
      <rect
         width="32"
         height="32"
         transform="translate(194,1197)"
         id="rect606"
         x="0"
         y="0"
         style="fill:#ffffff" />
    </clipPath>
    <clipPath
       id="clip23">
      <rect
         width="32"
         height="32"
         transform="translate(194,1252)"
         id="rect609"
         x="0"
         y="0"
         style="fill:#ffffff" />
    </clipPath>
    <clipPath
       id="clip13-3">
      <rect
         style="fill:#ffffff"
         y="0"
         x="0"
         width="32"
         height="32"
         transform="translate(281,1252)"
         id="rect579-6" />
    </clipPath>
    <clipPath
       id="clip12-7">
      <rect
         style="fill:#ffffff"
         y="0"
         x="0"
         width="32"
         height="32"
         transform="translate(281,1197)"
         id="rect576-5" />
    </clipPath>
    <clipPath
       id="clip11-3">
      <rect
         style="fill:#ffffff"
         y="0"
         x="0"
         width="32"
         height="32"
         transform="translate(281,1142)"
         id="rect573-5" />
    </clipPath>
    <clipPath
       id="clip10-6">
      <rect
         style="fill:#ffffff"
         y="0"
         x="0"
         width="32"
         height="32"
         transform="translate(281,1032)"
         id="rect570-2" />
    </clipPath>
    <clipPath
       id="clip9-9">
      <rect
         style="fill:#ffffff"
         y="0"
         x="0"
         width="32"
         height="32"
         transform="translate(281,702)"
         id="rect567-1" />
    </clipPath>
    <clipPath
       id="clip8-2">
      <rect
         style="fill:#ffffff"
         y="0"
         x="0"
         width="32"
         height="32"
         transform="translate(281,647)"
         id="rect564-7" />
    </clipPath>
    <clipPath
       id="clip7-0">
      <rect
         style="fill:#ffffff"
         y="0"
         x="0"
         width="32"
         height="32"
         transform="translate(281,537)"
         id="rect561-9" />
    </clipPath>
    <clipPath
       id="clip6-3">
      <rect
         style="fill:#ffffff"
         y="0"
         x="0"
         width="32"
         height="32"
         transform="translate(281,482)"
         id="rect558-6" />
    </clipPath>
    <clipPath
       id="clip5-0">
      <rect
         style="fill:#ffffff"
         y="0"
         x="0"
         width="32"
         height="32"
         transform="translate(281,372)"
         id="rect555-6" />
    </clipPath>
    <clipPath
       id="clip4-2">
      <rect
         style="fill:#ffffff"
         y="0"
         x="0"
         width="32"
         height="32"
         transform="translate(281,207)"
         id="rect552-6" />
    </clipPath>
  </defs>
</svg>
