<?xml version="1.0" encoding="UTF-8" standalone="no"?>
<svg
   xmlns:dc="http://purl.org/dc/elements/1.1/"
   xmlns:cc="http://creativecommons.org/ns#"
   xmlns:rdf="http://www.w3.org/1999/02/22-rdf-syntax-ns#"
   xmlns:svg="http://www.w3.org/2000/svg"
   xmlns="http://www.w3.org/2000/svg"
   xmlns:sodipodi="http://sodipodi.sourceforge.net/DTD/sodipodi-0.dtd"
   xmlns:inkscape="http://www.inkscape.org/namespaces/inkscape"
   width="31.99955"
   height="31.977871"
   viewBox="0 0 31.999551 31.977871"
   version="1.1"
   id="svg614"
   sodipodi:docname="organization.svg"
   inkscape:version="0.92.3 (2405546, 2018-03-11)"
   style="fill:none">
  <metadata
     id="metadata618">
    <rdf:RDF>
      <cc:Work
         rdf:about="">
        <dc:format>image/svg+xml</dc:format>
        <dc:type
           rdf:resource="http://purl.org/dc/dcmitype/StillImage" />
        <dc:title></dc:title>
      </cc:Work>
    </rdf:RDF>
  </metadata>
  <sodipodi:namedview
     pagecolor="#ffffff"
     bordercolor="#666666"
     borderopacity="1"
     objecttolerance="10"
     gridtolerance="10"
     guidetolerance="10"
     inkscape:pageopacity="0"
     inkscape:pageshadow="2"
     inkscape:window-width="1366"
     inkscape:window-height="704"
     id="namedview616"
     showgrid="false"
     inkscape:zoom="1.9153768"
     inkscape:cx="76.245002"
     inkscape:cy="-1.9895719"
     inkscape:window-x="1920"
     inkscape:window-y="27"
     inkscape:window-maximized="1"
     inkscape:current-layer="svg614" />
  <g
     clip-path="url(#clip10)"
     id="g248"
     transform="translate(-281.00031,-1032.01)">
    <path
       d="m 297.972,1036.4 1.967,1.08 1.076,1.97 c 0.06,0.11 0.176,0.17 0.301,0.17 0.126,0 0.241,-0.06 0.302,-0.17 l 1.075,-1.97 1.968,-1.08 c 0.11,-0.06 0.178,-0.17 0.178,-0.3 0,-0.12 -0.068,-0.24 -0.178,-0.3 l -1.968,-1.08 -1.075,-1.96 c -0.061,-0.11 -0.176,-0.18 -0.302,-0.18 -0.125,0 -0.241,0.07 -0.301,0.18 l -1.076,1.96 -1.967,1.08 c -0.11,0.06 -0.179,0.18 -0.179,0.3 0,0.13 0.069,0.24 0.179,0.3 z"
       id="path224"
       inkscape:connector-curvature="0"
       style="fill:#535e73" />
    <path
       d="m 296.524,1041.09 c 0.518,0 0.937,-0.42 0.937,-0.94 0,-0.52 -0.419,-0.94 -0.937,-0.94 -0.517,0 -0.937,0.42 -0.937,0.94 0,0.52 0.42,0.94 0.937,0.94 z"
       id="path226"
       inkscape:connector-curvature="0"
       style="fill:#535e73" />
    <path
       d="m 305.536,1051.11 c -0.366,0.37 -0.366,0.96 0,1.33 0.366,0.37 0.959,0.37 1.325,0 0.366,-0.37 0.366,-0.96 0,-1.33 -0.366,-0.36 -0.959,-0.36 -1.325,0 z"
       id="path228"
       inkscape:connector-curvature="0"
       style="fill:#535e73" />
    <path
       d="m 305.872,1041.5 c 0.517,0 0.937,-0.42 0.937,-0.94 0,-0.52 -0.42,-0.94 -0.937,-0.94 -0.518,0 -0.937,0.42 -0.937,0.94 0,0.52 0.419,0.94 0.937,0.94 z"
       id="path230"
       inkscape:connector-curvature="0"
       style="fill:#535e73" />
    <path
       d="m 290.966,1037.76 c 0.104,0.03 0.21,0.05 0.314,0.05 0.385,0 0.746,-0.24 0.882,-0.62 l 0.985,-2.77 c 0.173,-0.49 -0.081,-1.02 -0.569,-1.2 -0.487,-0.17 -1.023,0.08 -1.196,0.57 l -0.985,2.77 c -0.173,0.49 0.081,1.02 0.569,1.2 z"
       id="path232"
       inkscape:connector-curvature="0"
       style="fill:#535e73" />
    <path
       d="m 312.292,1041.37 c -0.502,-0.13 -1.011,0.17 -1.137,0.68 l -0.649,2.57 c -0.514,-0.31 -1.008,-0.66 -1.475,-1.03 -0.372,-0.3 -0.876,-0.37 -1.314,-0.19 -0.438,0.19 -0.737,0.6 -0.781,1.07 -0.068,0.73 -0.121,1.47 -0.159,2.21 -0.499,-0.26 -0.996,-0.53 -1.481,-0.8 -0.359,-0.19 -0.729,-0.4 -1.098,-0.59 -0.402,-0.22 -0.874,-0.21 -1.265,0.03 -0.391,0.23 -0.626,0.64 -0.63,1.1 -0.007,0.84 -0.008,1.7 -0.002,2.54 0.003,0.52 0.422,0.94 0.936,0.94 h 0.006 c 0.518,-0.01 0.935,-0.43 0.931,-0.95 -0.003,-0.51 -0.004,-1.03 -0.003,-1.55 0.074,0.04 0.147,0.08 0.22,0.12 0.769,0.43 1.564,0.87 2.39,1.24 0.394,0.19 0.85,0.16 1.219,-0.07 0.368,-0.23 0.596,-0.62 0.611,-1.05 0.023,-0.65 0.058,-1.3 0.105,-1.95 0.502,0.35 1.026,0.67 1.564,0.95 0.312,0.17 0.663,0.2 0.988,0.09 0.362,-0.13 0.658,-0.42 0.834,-0.83 0.02,-0.04 0.037,-0.09 0.049,-0.14 l 0.82,-3.26 c 0.127,-0.5 -0.177,-1.01 -0.679,-1.13 z"
       id="path234"
       inkscape:connector-curvature="0"
       style="fill:#535e73" />
    <path
       d="m 310.157,1037.66 c 1.56,0 2.825,-1.27 2.825,-2.83 0,-1.56 -1.265,-2.82 -2.825,-2.82 -1.56,0 -2.824,1.26 -2.824,2.82 0,1.56 1.264,2.83 2.824,2.83 z"
       id="path236"
       inkscape:connector-curvature="0"
       style="fill:#535e73" />
    <path
       d="m 298.487,1044.66 c 0.113,0 0.228,-0.02 0.339,-0.06 l 2.74,-1.07 c 0.482,-0.19 0.721,-0.73 0.534,-1.21 -0.188,-0.48 -0.731,-0.72 -1.213,-0.54 l -2.739,1.07 c -0.483,0.19 -0.722,0.73 -0.534,1.21 0.144,0.37 0.498,0.6 0.873,0.6 z"
       id="path238"
       inkscape:connector-curvature="0"
       style="fill:#535e73" />
    <path
       d="m 283.939,1056.52 7.269,3.34 4.658,-2.04 -10.257,-5.1 z"
       id="path240"
       inkscape:connector-curvature="0"
       style="fill:#535e73" />
    <path
       d="m 286.383,1050.95 11.23,5.6 -9.509,-9.51 z"
       id="path242"
       inkscape:connector-curvature="0"
       style="fill:#535e73" />
    <path
       d="m 291.166,1041.49 c -0.406,-0.4 -0.939,-0.61 -1.471,-0.61 -0.533,0 -1.065,0.21 -1.472,0.61 -0.813,0.82 -0.813,2.13 0,2.95 l 12.522,12.52 c 0.406,0.4 0.939,0.61 1.471,0.61 0.533,0 1.065,-0.21 1.472,-0.61 0.812,-0.81 0.812,-2.13 0,-2.95 z"
       id="path244"
       inkscape:connector-curvature="0"
       style="fill:#535e73" />
    <path
       d="m 281.057,1063.08 c -0.237,0.54 0.312,1.09 0.852,0.85 l 6.941,-3.03 -5.685,-2.62 z"
       id="path246"
       inkscape:connector-curvature="0"
       style="fill:#535e73" />
  </g>
  <defs
     id="defs612">
    <clipPath
       id="clip0">
      <rect
         width="16"
         height="16"
         transform="translate(0,312)"
         id="rect540"
         x="0"
         y="0"
         style="fill:#ffffff" />
    </clipPath>
    <clipPath
       id="clip1">
      <rect
         width="16"
         height="16"
         transform="matrix(-1,0,0,1,16,168)"
         id="rect543"
         x="0"
         y="0"
         style="fill:#ffffff" />
    </clipPath>
    <clipPath
       id="clip2">
      <rect
         width="16"
         height="16"
         transform="translate(0,240)"
         id="rect546"
         x="0"
         y="0"
         style="fill:#ffffff" />
    </clipPath>
    <clipPath
       id="clip3">
      <rect
         width="16"
         height="16"
         transform="translate(0,456)"
         id="rect549"
         x="0"
         y="0"
         style="fill:#ffffff" />
    </clipPath>
    <clipPath
       id="clip4">
      <rect
         width="32"
         height="32"
         transform="translate(281,207)"
         id="rect552"
         x="0"
         y="0"
         style="fill:#ffffff" />
    </clipPath>
    <clipPath
       id="clip5">
      <rect
         width="32"
         height="32"
         transform="translate(281,372)"
         id="rect555"
         x="0"
         y="0"
         style="fill:#ffffff" />
    </clipPath>
    <clipPath
       id="clip6">
      <rect
         width="32"
         height="32"
         transform="translate(281,482)"
         id="rect558"
         x="0"
         y="0"
         style="fill:#ffffff" />
    </clipPath>
    <clipPath
       id="clip7">
      <rect
         width="32"
         height="32"
         transform="translate(281,537)"
         id="rect561"
         x="0"
         y="0"
         style="fill:#ffffff" />
    </clipPath>
    <clipPath
       id="clip8">
      <rect
         width="32"
         height="32"
         transform="translate(281,647)"
         id="rect564"
         x="0"
         y="0"
         style="fill:#ffffff" />
    </clipPath>
    <clipPath
       id="clip9">
      <rect
         width="32"
         height="32"
         transform="translate(281,702)"
         id="rect567"
         x="0"
         y="0"
         style="fill:#ffffff" />
    </clipPath>
    <clipPath
       id="clip10">
      <rect
         width="32"
         height="32"
         transform="translate(281,1032)"
         id="rect570"
         x="0"
         y="0"
         style="fill:#ffffff" />
    </clipPath>
    <clipPath
       id="clip11">
      <rect
         width="32"
         height="32"
         transform="translate(281,1142)"
         id="rect573"
         x="0"
         y="0"
         style="fill:#ffffff" />
    </clipPath>
    <clipPath
       id="clip12">
      <rect
         width="32"
         height="32"
         transform="translate(281,1197)"
         id="rect576"
         x="0"
         y="0"
         style="fill:#ffffff" />
    </clipPath>
    <clipPath
       id="clip13">
      <rect
         width="32"
         height="32"
         transform="translate(281,1252)"
         id="rect579"
         x="0"
         y="0"
         style="fill:#ffffff" />
    </clipPath>
    <clipPath
       id="clip14">
      <rect
         width="32"
         height="32"
         transform="translate(194,207)"
         id="rect582"
         x="0"
         y="0"
         style="fill:#ffffff" />
    </clipPath>
    <clipPath
       id="clip15">
      <rect
         width="32"
         height="32"
         transform="translate(194,372)"
         id="rect585"
         x="0"
         y="0"
         style="fill:#ffffff" />
    </clipPath>
    <clipPath
       id="clip16">
      <rect
         width="32"
         height="32"
         transform="translate(194,482)"
         id="rect588"
         x="0"
         y="0"
         style="fill:#ffffff" />
    </clipPath>
    <clipPath
       id="clip17">
      <rect
         width="32"
         height="32"
         transform="translate(194,537)"
         id="rect591"
         x="0"
         y="0"
         style="fill:#ffffff" />
    </clipPath>
    <clipPath
       id="clip18">
      <rect
         width="32"
         height="32"
         transform="translate(194,647)"
         id="rect594"
         x="0"
         y="0"
         style="fill:#ffffff" />
    </clipPath>
    <clipPath
       id="clip19">
      <rect
         width="32"
         height="32"
         transform="translate(194,702)"
         id="rect597"
         x="0"
         y="0"
         style="fill:#ffffff" />
    </clipPath>
    <clipPath
       id="clip20">
      <rect
         width="32"
         height="32"
         transform="translate(194,1032)"
         id="rect600"
         x="0"
         y="0"
         style="fill:#ffffff" />
    </clipPath>
    <clipPath
       id="clip21">
      <rect
         width="32"
         height="32"
         transform="translate(194,1142)"
         id="rect603"
         x="0"
         y="0"
         style="fill:#ffffff" />
    </clipPath>
    <clipPath
       id="clip22">
      <rect
         width="32"
         height="32"
         transform="translate(194,1197)"
         id="rect606"
         x="0"
         y="0"
         style="fill:#ffffff" />
    </clipPath>
    <clipPath
       id="clip23">
      <rect
         width="32"
         height="32"
         transform="translate(194,1252)"
         id="rect609"
         x="0"
         y="0"
         style="fill:#ffffff" />
    </clipPath>
    <clipPath
       id="clip13-3">
      <rect
         style="fill:#ffffff"
         y="0"
         x="0"
         width="32"
         height="32"
         transform="translate(281,1252)"
         id="rect579-6" />
    </clipPath>
    <clipPath
       id="clip12-7">
      <rect
         style="fill:#ffffff"
         y="0"
         x="0"
         width="32"
         height="32"
         transform="translate(281,1197)"
         id="rect576-5" />
    </clipPath>
    <clipPath
       id="clip11-3">
      <rect
         style="fill:#ffffff"
         y="0"
         x="0"
         width="32"
         height="32"
         transform="translate(281,1142)"
         id="rect573-5" />
    </clipPath>
    <clipPath
       id="clip10-6">
      <rect
         style="fill:#ffffff"
         y="0"
         x="0"
         width="32"
         height="32"
         transform="translate(281,1032)"
         id="rect570-2" />
    </clipPath>
    <clipPath
       id="clip9-9">
      <rect
         style="fill:#ffffff"
         y="0"
         x="0"
         width="32"
         height="32"
         transform="translate(281,702)"
         id="rect567-1" />
    </clipPath>
    <clipPath
       id="clip8-2">
      <rect
         style="fill:#ffffff"
         y="0"
         x="0"
         width="32"
         height="32"
         transform="translate(281,647)"
         id="rect564-7" />
    </clipPath>
    <clipPath
       id="clip7-0">
      <rect
         style="fill:#ffffff"
         y="0"
         x="0"
         width="32"
         height="32"
         transform="translate(281,537)"
         id="rect561-9" />
    </clipPath>
    <clipPath
       id="clip6-3">
      <rect
         style="fill:#ffffff"
         y="0"
         x="0"
         width="32"
         height="32"
         transform="translate(281,482)"
         id="rect558-6" />
    </clipPath>
    <clipPath
       id="clip5-0">
      <rect
         style="fill:#ffffff"
         y="0"
         x="0"
         width="32"
         height="32"
         transform="translate(281,372)"
         id="rect555-6" />
    </clipPath>
    <clipPath
       id="clip4-2">
      <rect
         style="fill:#ffffff"
         y="0"
         x="0"
         width="32"
         height="32"
         transform="translate(281,207)"
         id="rect552-6" />
    </clipPath>
  </defs>
</svg>
