<?xml version="1.0" encoding="UTF-8" standalone="no"?>
<svg
   xmlns:dc="http://purl.org/dc/elements/1.1/"
   xmlns:cc="http://creativecommons.org/ns#"
   xmlns:rdf="http://www.w3.org/1999/02/22-rdf-syntax-ns#"
   xmlns:svg="http://www.w3.org/2000/svg"
   xmlns="http://www.w3.org/2000/svg"
   xmlns:sodipodi="http://sodipodi.sourceforge.net/DTD/sodipodi-0.dtd"
   xmlns:inkscape="http://www.inkscape.org/namespaces/inkscape"
   width="31.999865"
   height="32"
   viewBox="0 0 31.999866 32"
   version="1.1"
   id="svg614"
   sodipodi:docname="web_w.svg"
   inkscape:version="0.92.3 (2405546, 2018-03-11)"
   style="fill:none">
  <metadata
     id="metadata618">
    <rdf:RDF>
      <cc:Work
         rdf:about="">
        <dc:format>image/svg+xml</dc:format>
        <dc:type
           rdf:resource="http://purl.org/dc/dcmitype/StillImage" />
        <dc:title></dc:title>
      </cc:Work>
    </rdf:RDF>
  </metadata>
  <sodipodi:namedview
     pagecolor="#ffffff"
     bordercolor="#666666"
     borderopacity="1"
     objecttolerance="10"
     gridtolerance="10"
     guidetolerance="10"
     inkscape:pageopacity="0"
     inkscape:pageshadow="2"
     inkscape:window-width="1366"
     inkscape:window-height="704"
     id="namedview616"
     showgrid="false"
     inkscape:zoom="1.9153768"
     inkscape:cx="8.287245"
     inkscape:cy="-31.955907"
     inkscape:window-x="1920"
     inkscape:window-y="27"
     inkscape:window-maximized="1"
     inkscape:current-layer="svg614" />
  <g
     clip-path="url(#clip8)"
     id="g160"
     transform="translate(-281,-647)"
     style="fill:#ffffff">
    <path
       d="m 304.456,654.5 h -5.405 c -0.143,1.326 -0.143,2.424 0,3.75 h 5.405 c 0.142,-1.326 0.142,-2.424 0,-3.75 z"
       id="path138"
       inkscape:connector-curvature="0"
       style="fill:#ffffff" />
    <path
       d="m 301.75,647 c 1.998,0 3.627,2.254 4.323,5.625 h 4.257 C 308.88,649.32 305.585,647 301.75,647 Z"
       id="path140"
       inkscape:connector-curvature="0"
       style="fill:#ffffff" />
    <path
       d="m 293.17,652.625 h 4.257 c 0.696,-3.371 2.325,-5.625 4.323,-5.625 -3.834,0 -7.129,2.32 -8.58,5.625 z"
       id="path142"
       inkscape:connector-curvature="0"
       style="fill:#ffffff" />
    <path
       d="m 310.936,654.5 h -4.575 c 0.114,1.215 0.123,2.439 0,3.75 h 4.575 c 0.123,-0.606 0.189,-1.233 0.189,-1.875 0,-0.642 -0.066,-1.269 -0.189,-1.875 z"
       id="path144"
       inkscape:connector-curvature="0"
       style="fill:#ffffff" />
    <path
       d="m 297.427,660.125 h -4.257 c 1.451,3.305 4.746,5.625 8.58,5.625 -1.998,0 -3.627,-2.254 -4.323,-5.625 z"
       id="path146"
       inkscape:connector-curvature="0"
       style="fill:#ffffff" />
    <path
       d="m 297.139,654.5 h -4.574 c -0.124,0.606 -0.19,1.233 -0.19,1.875 0,0.642 0.066,1.269 0.19,1.875 h 4.574 c -0.114,-1.215 -0.123,-2.439 0,-3.75 z"
       id="path148"
       inkscape:connector-curvature="0"
       style="fill:#ffffff" />
    <path
       d="m 306.073,660.125 c -0.696,3.371 -2.325,5.625 -4.323,5.625 3.835,0 7.13,-2.32 8.58,-5.625 z"
       id="path150"
       inkscape:connector-curvature="0"
       style="fill:#ffffff" />
    <path
       d="m 301.75,648.875 c -0.788,0 -1.809,1.403 -2.378,3.75 h 4.756 c -0.569,-2.347 -1.59,-3.75 -2.378,-3.75 z"
       id="path152"
       inkscape:connector-curvature="0"
       style="fill:#ffffff" />
    <path
       d="m 299.372,660.125 c 0.569,2.347 1.59,3.75 2.378,3.75 0.788,0 1.809,-1.403 2.378,-3.75 z"
       id="path154"
       inkscape:connector-curvature="0"
       style="fill:#ffffff" />
    <path
       d="m 285.813,665.875 h -3.875 c -0.519,0 -0.938,0.419 -0.938,0.937 v 11.25 c 0,0.519 0.419,0.938 0.938,0.938 h 3.875 c 1.55,0 2.812,-1.262 2.812,-2.813 v -7.5 c 0,-1.55 -1.261,-2.812 -2.812,-2.812 z m 0,5.625 c -0.518,0 -0.938,-0.42 -0.938,-0.938 0,-0.517 0.42,-0.937 0.938,-0.937 0.517,0 0.937,0.42 0.937,0.937 0,0.518 -0.42,0.938 -0.937,0.938 z"
       id="path156"
       inkscape:connector-curvature="0"
       style="fill:#ffffff" />
    <path
       d="m 312.228,666.235 c -0.772,-0.564 -1.833,-0.45 -2.475,0.237 l -5.066,6.307 c -0.344,0.37 -1.025,0.596 -1.371,0.596 -2.022,0 0.596,0 -5.417,0 -0.357,0 -0.678,0.198 -0.837,0.517 -0.553,1.109 -2.232,0.272 -1.677,-0.837 0.477,-0.959 1.441,-1.555 2.514,-1.555 1.915,0 2.88,0 4.789,0 1.035,0 1.875,-0.839 1.875,-1.875 0,-1.036 -0.84,-1.875 -1.875,-1.875 h -2.813 c -0.684,0 -0.729,-0.128 -1.29,-0.622 -2.286,-2.011 -5.637,-2.136 -8.085,-0.426 v 11.685 c 1.06,0.401 2.189,0.613 3.324,0.613 h 8.864 c 1.762,0 3.444,-0.841 4.499,-2.251 l 5.439,-7.875 c 0.625,-0.831 0.449,-2.021 -0.398,-2.639 z"
       id="path158"
       inkscape:connector-curvature="0"
       style="fill:#ffffff" />
  </g>
  <defs
     id="defs612">
    <clipPath
       id="clip0">
      <rect
         width="16"
         height="16"
         transform="translate(0,312)"
         id="rect540"
         x="0"
         y="0"
         style="fill:#ffffff" />
    </clipPath>
    <clipPath
       id="clip1">
      <rect
         width="16"
         height="16"
         transform="matrix(-1,0,0,1,16,168)"
         id="rect543"
         x="0"
         y="0"
         style="fill:#ffffff" />
    </clipPath>
    <clipPath
       id="clip2">
      <rect
         width="16"
         height="16"
         transform="translate(0,240)"
         id="rect546"
         x="0"
         y="0"
         style="fill:#ffffff" />
    </clipPath>
    <clipPath
       id="clip3">
      <rect
         width="16"
         height="16"
         transform="translate(0,456)"
         id="rect549"
         x="0"
         y="0"
         style="fill:#ffffff" />
    </clipPath>
    <clipPath
       id="clip4">
      <rect
         width="32"
         height="32"
         transform="translate(281,207)"
         id="rect552"
         x="0"
         y="0"
         style="fill:#ffffff" />
    </clipPath>
    <clipPath
       id="clip5">
      <rect
         width="32"
         height="32"
         transform="translate(281,372)"
         id="rect555"
         x="0"
         y="0"
         style="fill:#ffffff" />
    </clipPath>
    <clipPath
       id="clip6">
      <rect
         width="32"
         height="32"
         transform="translate(281,482)"
         id="rect558"
         x="0"
         y="0"
         style="fill:#ffffff" />
    </clipPath>
    <clipPath
       id="clip7">
      <rect
         width="32"
         height="32"
         transform="translate(281,537)"
         id="rect561"
         x="0"
         y="0"
         style="fill:#ffffff" />
    </clipPath>
    <clipPath
       id="clip8">
      <rect
         width="32"
         height="32"
         transform="translate(281,647)"
         id="rect564"
         x="0"
         y="0"
         style="fill:#ffffff" />
    </clipPath>
    <clipPath
       id="clip9">
      <rect
         width="32"
         height="32"
         transform="translate(281,702)"
         id="rect567"
         x="0"
         y="0"
         style="fill:#ffffff" />
    </clipPath>
    <clipPath
       id="clip10">
      <rect
         width="32"
         height="32"
         transform="translate(281,1032)"
         id="rect570"
         x="0"
         y="0"
         style="fill:#ffffff" />
    </clipPath>
    <clipPath
       id="clip11">
      <rect
         width="32"
         height="32"
         transform="translate(281,1142)"
         id="rect573"
         x="0"
         y="0"
         style="fill:#ffffff" />
    </clipPath>
    <clipPath
       id="clip12">
      <rect
         width="32"
         height="32"
         transform="translate(281,1197)"
         id="rect576"
         x="0"
         y="0"
         style="fill:#ffffff" />
    </clipPath>
    <clipPath
       id="clip13">
      <rect
         width="32"
         height="32"
         transform="translate(281,1252)"
         id="rect579"
         x="0"
         y="0"
         style="fill:#ffffff" />
    </clipPath>
    <clipPath
       id="clip14">
      <rect
         width="32"
         height="32"
         transform="translate(194,207)"
         id="rect582"
         x="0"
         y="0"
         style="fill:#ffffff" />
    </clipPath>
    <clipPath
       id="clip15">
      <rect
         width="32"
         height="32"
         transform="translate(194,372)"
         id="rect585"
         x="0"
         y="0"
         style="fill:#ffffff" />
    </clipPath>
    <clipPath
       id="clip16">
      <rect
         width="32"
         height="32"
         transform="translate(194,482)"
         id="rect588"
         x="0"
         y="0"
         style="fill:#ffffff" />
    </clipPath>
    <clipPath
       id="clip17">
      <rect
         width="32"
         height="32"
         transform="translate(194,537)"
         id="rect591"
         x="0"
         y="0"
         style="fill:#ffffff" />
    </clipPath>
    <clipPath
       id="clip18">
      <rect
         width="32"
         height="32"
         transform="translate(194,647)"
         id="rect594"
         x="0"
         y="0"
         style="fill:#ffffff" />
    </clipPath>
    <clipPath
       id="clip19">
      <rect
         width="32"
         height="32"
         transform="translate(194,702)"
         id="rect597"
         x="0"
         y="0"
         style="fill:#ffffff" />
    </clipPath>
    <clipPath
       id="clip20">
      <rect
         width="32"
         height="32"
         transform="translate(194,1032)"
         id="rect600"
         x="0"
         y="0"
         style="fill:#ffffff" />
    </clipPath>
    <clipPath
       id="clip21">
      <rect
         width="32"
         height="32"
         transform="translate(194,1142)"
         id="rect603"
         x="0"
         y="0"
         style="fill:#ffffff" />
    </clipPath>
    <clipPath
       id="clip22">
      <rect
         width="32"
         height="32"
         transform="translate(194,1197)"
         id="rect606"
         x="0"
         y="0"
         style="fill:#ffffff" />
    </clipPath>
    <clipPath
       id="clip23">
      <rect
         width="32"
         height="32"
         transform="translate(194,1252)"
         id="rect609"
         x="0"
         y="0"
         style="fill:#ffffff" />
    </clipPath>
    <clipPath
       id="clip13-3">
      <rect
         style="fill:#ffffff"
         y="0"
         x="0"
         width="32"
         height="32"
         transform="translate(281,1252)"
         id="rect579-6" />
    </clipPath>
    <clipPath
       id="clip12-7">
      <rect
         style="fill:#ffffff"
         y="0"
         x="0"
         width="32"
         height="32"
         transform="translate(281,1197)"
         id="rect576-5" />
    </clipPath>
    <clipPath
       id="clip11-3">
      <rect
         style="fill:#ffffff"
         y="0"
         x="0"
         width="32"
         height="32"
         transform="translate(281,1142)"
         id="rect573-5" />
    </clipPath>
    <clipPath
       id="clip10-6">
      <rect
         style="fill:#ffffff"
         y="0"
         x="0"
         width="32"
         height="32"
         transform="translate(281,1032)"
         id="rect570-2" />
    </clipPath>
    <clipPath
       id="clip9-9">
      <rect
         style="fill:#ffffff"
         y="0"
         x="0"
         width="32"
         height="32"
         transform="translate(281,702)"
         id="rect567-1" />
    </clipPath>
    <clipPath
       id="clip8-2">
      <rect
         style="fill:#ffffff"
         y="0"
         x="0"
         width="32"
         height="32"
         transform="translate(281,647)"
         id="rect564-7" />
    </clipPath>
    <clipPath
       id="clip7-0">
      <rect
         style="fill:#ffffff"
         y="0"
         x="0"
         width="32"
         height="32"
         transform="translate(281,537)"
         id="rect561-9" />
    </clipPath>
    <clipPath
       id="clip6-3">
      <rect
         style="fill:#ffffff"
         y="0"
         x="0"
         width="32"
         height="32"
         transform="translate(281,482)"
         id="rect558-6" />
    </clipPath>
    <clipPath
       id="clip5-0">
      <rect
         style="fill:#ffffff"
         y="0"
         x="0"
         width="32"
         height="32"
         transform="translate(281,372)"
         id="rect555-6" />
    </clipPath>
    <clipPath
       id="clip4-2">
      <rect
         style="fill:#ffffff"
         y="0"
         x="0"
         width="32"
         height="32"
         transform="translate(281,207)"
         id="rect552-6" />
    </clipPath>
  </defs>
</svg>
