<?xml version="1.0" encoding="UTF-8" standalone="no"?>
<svg
   xmlns:dc="http://purl.org/dc/elements/1.1/"
   xmlns:cc="http://creativecommons.org/ns#"
   xmlns:rdf="http://www.w3.org/1999/02/22-rdf-syntax-ns#"
   xmlns:svg="http://www.w3.org/2000/svg"
   xmlns="http://www.w3.org/2000/svg"
   xmlns:sodipodi="http://sodipodi.sourceforge.net/DTD/sodipodi-0.dtd"
   xmlns:inkscape="http://www.inkscape.org/namespaces/inkscape"
   width="32"
   height="32"
   viewBox="0 0 32.000001 32"
   version="1.1"
   id="svg614"
   sodipodi:docname="animals.svg"
   inkscape:version="0.92.3 (2405546, 2018-03-11)"
   style="fill:none">
  <metadata
     id="metadata618">
    <rdf:RDF>
      <cc:Work
         rdf:about="">
        <dc:format>image/svg+xml</dc:format>
        <dc:type
           rdf:resource="http://purl.org/dc/dcmitype/StillImage" />
        <dc:title></dc:title>
      </cc:Work>
    </rdf:RDF>
  </metadata>
  <sodipodi:namedview
     pagecolor="#ffffff"
     bordercolor="#666666"
     borderopacity="1"
     objecttolerance="10"
     gridtolerance="10"
     guidetolerance="10"
     inkscape:pageopacity="0"
     inkscape:pageshadow="2"
     inkscape:window-width="1366"
     inkscape:window-height="704"
     id="namedview616"
     showgrid="false"
     inkscape:zoom="1.9153768"
     inkscape:cx="76.245312"
     inkscape:cy="69.22823"
     inkscape:window-x="1920"
     inkscape:window-y="27"
     inkscape:window-maximized="1"
     inkscape:current-layer="svg614" />
  <g
     id="g5176"
     transform="translate(-281,-1362)">
    <path
       id="path300"
       d="m 306.574,1382.67 -0.299,-0.23 c -0.556,-0.43 -0.929,-0.98 -1.082,-1.6 -0.862,-3.5 -3.925,-5.59 -8.193,-5.59 -4.268,0 -7.331,2.09 -8.193,5.59 -0.153,0.62 -0.526,1.17 -1.082,1.6 l -0.299,0.23 c -1.748,1.35 -3.129,2.41 -2.419,5.56 0.631,2.81 2.963,5.07 5.802,5.62 0.501,0.1 1.003,0.15 1.501,0.15 1.035,0 2.053,-0.21 3,-0.62 1.073,-0.47 2.307,-0.47 3.38,0 h 10e-4 c 1.403,0.61 2.957,0.77 4.501,0.47 2.838,-0.55 5.17,-2.81 5.801,-5.62 0.71,-3.15 -0.671,-4.21 -2.419,-5.56 z"
       inkscape:connector-curvature="0"
       style="fill:#535e73" />
    <path
       id="path302"
       d="m 292.312,1371.38 c 2.069,0 3.75,-2.11 3.75,-4.69 0,-2.59 -1.681,-4.69 -3.75,-4.69 -2.068,0 -3.75,2.1 -3.75,4.69 0,2.58 1.682,4.69 3.75,4.69 z"
       inkscape:connector-curvature="0"
       style="fill:#535e73" />
    <path
       id="path304"
       d="m 301.688,1371.38 c 2.068,0 3.75,-2.11 3.75,-4.69 0,-2.59 -1.682,-4.69 -3.75,-4.69 -2.069,0 -3.75,2.1 -3.75,4.69 0,2.58 1.681,4.69 3.75,4.69 z"
       inkscape:connector-curvature="0"
       style="fill:#535e73" />
    <path
       id="path306"
       d="m 288.5,1374.25 c 0,-2.58 -1.682,-4.69 -3.75,-4.69 -2.068,0 -3.75,2.11 -3.75,4.69 0,2.58 1.682,4.69 3.75,4.69 2.068,0 3.75,-2.11 3.75,-4.69 z"
       inkscape:connector-curvature="0"
       style="fill:#535e73" />
    <path
       id="path308"
       d="m 309.25,1369.56 c -2.068,0 -3.75,2.11 -3.75,4.69 0,2.58 1.682,4.69 3.75,4.69 2.068,0 3.75,-2.11 3.75,-4.69 0,-2.58 -1.682,-4.69 -3.75,-4.69 z"
       inkscape:connector-curvature="0"
       style="fill:#535e73" />
  </g>
  <defs
     id="defs612">
    <clipPath
       id="clip0">
      <rect
         width="16"
         height="16"
         transform="translate(0,312)"
         id="rect540"
         x="0"
         y="0"
         style="fill:#ffffff" />
    </clipPath>
    <clipPath
       id="clip1">
      <rect
         width="16"
         height="16"
         transform="matrix(-1,0,0,1,16,168)"
         id="rect543"
         x="0"
         y="0"
         style="fill:#ffffff" />
    </clipPath>
    <clipPath
       id="clip2">
      <rect
         width="16"
         height="16"
         transform="translate(0,240)"
         id="rect546"
         x="0"
         y="0"
         style="fill:#ffffff" />
    </clipPath>
    <clipPath
       id="clip3">
      <rect
         width="16"
         height="16"
         transform="translate(0,456)"
         id="rect549"
         x="0"
         y="0"
         style="fill:#ffffff" />
    </clipPath>
    <clipPath
       id="clip4">
      <rect
         width="32"
         height="32"
         transform="translate(281,207)"
         id="rect552"
         x="0"
         y="0"
         style="fill:#ffffff" />
    </clipPath>
    <clipPath
       id="clip5">
      <rect
         width="32"
         height="32"
         transform="translate(281,372)"
         id="rect555"
         x="0"
         y="0"
         style="fill:#ffffff" />
    </clipPath>
    <clipPath
       id="clip6">
      <rect
         width="32"
         height="32"
         transform="translate(281,482)"
         id="rect558"
         x="0"
         y="0"
         style="fill:#ffffff" />
    </clipPath>
    <clipPath
       id="clip7">
      <rect
         width="32"
         height="32"
         transform="translate(281,537)"
         id="rect561"
         x="0"
         y="0"
         style="fill:#ffffff" />
    </clipPath>
    <clipPath
       id="clip8">
      <rect
         width="32"
         height="32"
         transform="translate(281,647)"
         id="rect564"
         x="0"
         y="0"
         style="fill:#ffffff" />
    </clipPath>
    <clipPath
       id="clip9">
      <rect
         width="32"
         height="32"
         transform="translate(281,702)"
         id="rect567"
         x="0"
         y="0"
         style="fill:#ffffff" />
    </clipPath>
    <clipPath
       id="clip10">
      <rect
         width="32"
         height="32"
         transform="translate(281,1032)"
         id="rect570"
         x="0"
         y="0"
         style="fill:#ffffff" />
    </clipPath>
    <clipPath
       id="clip11">
      <rect
         width="32"
         height="32"
         transform="translate(281,1142)"
         id="rect573"
         x="0"
         y="0"
         style="fill:#ffffff" />
    </clipPath>
    <clipPath
       id="clip12">
      <rect
         width="32"
         height="32"
         transform="translate(281,1197)"
         id="rect576"
         x="0"
         y="0"
         style="fill:#ffffff" />
    </clipPath>
    <clipPath
       id="clip13">
      <rect
         width="32"
         height="32"
         transform="translate(281,1252)"
         id="rect579"
         x="0"
         y="0"
         style="fill:#ffffff" />
    </clipPath>
    <clipPath
       id="clip14">
      <rect
         width="32"
         height="32"
         transform="translate(194,207)"
         id="rect582"
         x="0"
         y="0"
         style="fill:#ffffff" />
    </clipPath>
    <clipPath
       id="clip15">
      <rect
         width="32"
         height="32"
         transform="translate(194,372)"
         id="rect585"
         x="0"
         y="0"
         style="fill:#ffffff" />
    </clipPath>
    <clipPath
       id="clip16">
      <rect
         width="32"
         height="32"
         transform="translate(194,482)"
         id="rect588"
         x="0"
         y="0"
         style="fill:#ffffff" />
    </clipPath>
    <clipPath
       id="clip17">
      <rect
         width="32"
         height="32"
         transform="translate(194,537)"
         id="rect591"
         x="0"
         y="0"
         style="fill:#ffffff" />
    </clipPath>
    <clipPath
       id="clip18">
      <rect
         width="32"
         height="32"
         transform="translate(194,647)"
         id="rect594"
         x="0"
         y="0"
         style="fill:#ffffff" />
    </clipPath>
    <clipPath
       id="clip19">
      <rect
         width="32"
         height="32"
         transform="translate(194,702)"
         id="rect597"
         x="0"
         y="0"
         style="fill:#ffffff" />
    </clipPath>
    <clipPath
       id="clip20">
      <rect
         width="32"
         height="32"
         transform="translate(194,1032)"
         id="rect600"
         x="0"
         y="0"
         style="fill:#ffffff" />
    </clipPath>
    <clipPath
       id="clip21">
      <rect
         width="32"
         height="32"
         transform="translate(194,1142)"
         id="rect603"
         x="0"
         y="0"
         style="fill:#ffffff" />
    </clipPath>
    <clipPath
       id="clip22">
      <rect
         width="32"
         height="32"
         transform="translate(194,1197)"
         id="rect606"
         x="0"
         y="0"
         style="fill:#ffffff" />
    </clipPath>
    <clipPath
       id="clip23">
      <rect
         width="32"
         height="32"
         transform="translate(194,1252)"
         id="rect609"
         x="0"
         y="0"
         style="fill:#ffffff" />
    </clipPath>
    <clipPath
       id="clip13-3">
      <rect
         style="fill:#ffffff"
         y="0"
         x="0"
         width="32"
         height="32"
         transform="translate(281,1252)"
         id="rect579-6" />
    </clipPath>
    <clipPath
       id="clip12-7">
      <rect
         style="fill:#ffffff"
         y="0"
         x="0"
         width="32"
         height="32"
         transform="translate(281,1197)"
         id="rect576-5" />
    </clipPath>
    <clipPath
       id="clip11-3">
      <rect
         style="fill:#ffffff"
         y="0"
         x="0"
         width="32"
         height="32"
         transform="translate(281,1142)"
         id="rect573-5" />
    </clipPath>
    <clipPath
       id="clip10-6">
      <rect
         style="fill:#ffffff"
         y="0"
         x="0"
         width="32"
         height="32"
         transform="translate(281,1032)"
         id="rect570-2" />
    </clipPath>
    <clipPath
       id="clip9-9">
      <rect
         style="fill:#ffffff"
         y="0"
         x="0"
         width="32"
         height="32"
         transform="translate(281,702)"
         id="rect567-1" />
    </clipPath>
    <clipPath
       id="clip8-2">
      <rect
         style="fill:#ffffff"
         y="0"
         x="0"
         width="32"
         height="32"
         transform="translate(281,647)"
         id="rect564-7" />
    </clipPath>
    <clipPath
       id="clip7-0">
      <rect
         style="fill:#ffffff"
         y="0"
         x="0"
         width="32"
         height="32"
         transform="translate(281,537)"
         id="rect561-9" />
    </clipPath>
    <clipPath
       id="clip6-3">
      <rect
         style="fill:#ffffff"
         y="0"
         x="0"
         width="32"
         height="32"
         transform="translate(281,482)"
         id="rect558-6" />
    </clipPath>
    <clipPath
       id="clip5-0">
      <rect
         style="fill:#ffffff"
         y="0"
         x="0"
         width="32"
         height="32"
         transform="translate(281,372)"
         id="rect555-6" />
    </clipPath>
    <clipPath
       id="clip4-2">
      <rect
         style="fill:#ffffff"
         y="0"
         x="0"
         width="32"
         height="32"
         transform="translate(281,207)"
         id="rect552-6" />
    </clipPath>
  </defs>
</svg>
