<?xml version="1.0" encoding="UTF-8" standalone="no"?>
<svg
   xmlns:dc="http://purl.org/dc/elements/1.1/"
   xmlns:cc="http://creativecommons.org/ns#"
   xmlns:rdf="http://www.w3.org/1999/02/22-rdf-syntax-ns#"
   xmlns:svg="http://www.w3.org/2000/svg"
   xmlns="http://www.w3.org/2000/svg"
   xmlns:sodipodi="http://sodipodi.sourceforge.net/DTD/sodipodi-0.dtd"
   xmlns:inkscape="http://www.inkscape.org/namespaces/inkscape"
   width="32"
   height="29.610001"
   viewBox="0 0 32 29.610001"
   version="1.1"
   id="svg614"
   sodipodi:docname="cleaning.svg"
   inkscape:version="0.92.3 (2405546, 2018-03-11)"
   style="fill:none">
  <metadata
     id="metadata618">
    <rdf:RDF>
      <cc:Work
         rdf:about="">
        <dc:format>image/svg+xml</dc:format>
        <dc:type
           rdf:resource="http://purl.org/dc/dcmitype/StillImage" />
        <dc:title></dc:title>
      </cc:Work>
    </rdf:RDF>
  </metadata>
  <sodipodi:namedview
     pagecolor="#ffffff"
     bordercolor="#666666"
     borderopacity="1"
     objecttolerance="10"
     gridtolerance="10"
     guidetolerance="10"
     inkscape:pageopacity="0"
     inkscape:pageshadow="2"
     inkscape:window-width="1920"
     inkscape:window-height="1043"
     id="namedview616"
     showgrid="false"
     inkscape:zoom="1.9153768"
     inkscape:cx="-61.160698"
     inkscape:cy="66.815699"
     inkscape:window-x="0"
     inkscape:window-y="0"
     inkscape:window-maximized="1"
     inkscape:current-layer="svg614" />
  <g
     id="g5164"
     transform="translate(-281,-263.195)">
    <path
       id="path74"
       d="m 292.527,279.252 h 9.375 v 6.053 h -9.375 z"
       inkscape:connector-curvature="0"
       style="fill:#535e73" />
    <path
       id="path76"
       d="m 312.062,279.252 h -8.285 v 8.598 c 0,0.518 -0.42,0.938 -0.938,0.938 -0.518,0 -0.937,-0.42 -0.937,-0.938 v -0.67 h -1.875 v 0.67 c 0,0.518 -0.42,0.938 -0.938,0.938 -0.518,0 -0.937,-0.42 -0.937,-0.938 v -0.67 h -1.875 v 0.67 c 0,0.518 -0.42,0.938 -0.938,0.938 -0.518,0 -0.937,-0.42 -0.937,-0.938 v -0.67 h -1.875 v 0.67 c 0,0.518 -0.42,0.938 -0.938,0.938 -0.518,0 -0.937,-0.42 -0.937,-0.938 v -8.598 h -8.714 c -0.518,0 -0.938,0.42 -0.938,0.938 0,0.517 0.42,0.937 0.938,0.937 h 0.804 l 2.341,10.937 c 0.093,0.433 0.475,0.741 0.917,0.741 h 22 c 0.442,0 0.824,-0.308 0.917,-0.741 l 2.341,-10.937 h 0.804 c 0.518,0 0.938,-0.42 0.938,-0.937 0,-0.518 -0.42,-0.938 -0.938,-0.938 z"
       inkscape:connector-curvature="0"
       style="fill:#535e73" />
    <path
       id="path78"
       d="m 301.346,274.392 c 0.25,0.972 0.423,1.971 0.518,2.985 h 6.409 l 0.695,-1.648 c 0.669,-1.586 -0.078,-3.421 -1.667,-4.091 -3.87,-1.63 -3.507,-1.477 -3.629,-1.528 -1.28,-0.54 -2.723,-0.158 -3.583,0.844 0.524,1.076 0.944,2.221 1.252,3.417 10e-4,0.008 0.003,0.014 0.005,0.021 z"
       inkscape:connector-curvature="0"
       style="fill:#535e73" />
    <path
       id="path80"
       d="m 308.643,270.21 0.575,-1.363 c 0.201,-0.477 -0.024,-1.027 -0.5,-1.227 l -3.115,-1.297 c -0.477,-0.201 -1.027,0.023 -1.227,0.5 l -0.573,1.36 c 0.268,0.063 0.533,0.15 0.792,0.258 3.53,1.472 3.552,1.452 4.048,1.769 z"
       inkscape:connector-curvature="0"
       style="fill:#535e73" />
    <path
       id="path82"
       d="m 286.263,267.355 h 2.442 l -1.363,1.458 c -0.353,0.378 -0.334,0.971 0.045,1.325 0.378,0.353 0.971,0.334 1.325,-0.045 1.533,-1.639 1.428,-1.52 1.489,-1.61 l 0.763,1.011 c 0.23,0.306 0.591,0.486 0.974,0.486 h 3.458 c 1.391,0 2.519,-1.129 2.519,-2.519 v -0.849 c 0,-0.668 -0.266,-1.309 -0.738,-1.781 l -0.898,-0.899 c -0.473,-0.472 -1.113,-0.737 -1.781,-0.737 h -8.235 c -0.427,0 -0.773,0.346 -0.773,0.773 v 2.614 c 0,0.427 0.346,0.773 0.773,0.773 z"
       inkscape:connector-curvature="0"
       style="fill:#535e73" />
    <path
       id="path84"
       d="m 291.938,271.855 c -0.752,0 -1.48,-0.28 -2.039,-0.769 -1.057,1.901 -1.734,4.054 -1.98,6.291 h 12.061 c -0.089,-0.856 -0.24,-1.699 -0.451,-2.521 -0.002,-0.006 -0.003,-0.012 -0.004,-0.017 -0.353,-1.373 -0.864,-2.657 -1.525,-3.837 -0.742,0.548 -1.648,0.853 -2.604,0.853 z"
       inkscape:connector-curvature="0"
       style="fill:#535e73" />
  </g>
  <defs
     id="defs612">
    <clipPath
       id="clip0">
      <rect
         width="16"
         height="16"
         transform="translate(0,312)"
         id="rect540"
         x="0"
         y="0"
         style="fill:#ffffff" />
    </clipPath>
    <clipPath
       id="clip1">
      <rect
         width="16"
         height="16"
         transform="matrix(-1,0,0,1,16,168)"
         id="rect543"
         x="0"
         y="0"
         style="fill:#ffffff" />
    </clipPath>
    <clipPath
       id="clip2">
      <rect
         width="16"
         height="16"
         transform="translate(0,240)"
         id="rect546"
         x="0"
         y="0"
         style="fill:#ffffff" />
    </clipPath>
    <clipPath
       id="clip3">
      <rect
         width="16"
         height="16"
         transform="translate(0,456)"
         id="rect549"
         x="0"
         y="0"
         style="fill:#ffffff" />
    </clipPath>
    <clipPath
       id="clip4">
      <rect
         width="32"
         height="32"
         transform="translate(281,207)"
         id="rect552"
         x="0"
         y="0"
         style="fill:#ffffff" />
    </clipPath>
    <clipPath
       id="clip5">
      <rect
         width="32"
         height="32"
         transform="translate(281,372)"
         id="rect555"
         x="0"
         y="0"
         style="fill:#ffffff" />
    </clipPath>
    <clipPath
       id="clip6">
      <rect
         width="32"
         height="32"
         transform="translate(281,482)"
         id="rect558"
         x="0"
         y="0"
         style="fill:#ffffff" />
    </clipPath>
    <clipPath
       id="clip7">
      <rect
         width="32"
         height="32"
         transform="translate(281,537)"
         id="rect561"
         x="0"
         y="0"
         style="fill:#ffffff" />
    </clipPath>
    <clipPath
       id="clip8">
      <rect
         width="32"
         height="32"
         transform="translate(281,647)"
         id="rect564"
         x="0"
         y="0"
         style="fill:#ffffff" />
    </clipPath>
    <clipPath
       id="clip9">
      <rect
         width="32"
         height="32"
         transform="translate(281,702)"
         id="rect567"
         x="0"
         y="0"
         style="fill:#ffffff" />
    </clipPath>
    <clipPath
       id="clip10">
      <rect
         width="32"
         height="32"
         transform="translate(281,1032)"
         id="rect570"
         x="0"
         y="0"
         style="fill:#ffffff" />
    </clipPath>
    <clipPath
       id="clip11">
      <rect
         width="32"
         height="32"
         transform="translate(281,1142)"
         id="rect573"
         x="0"
         y="0"
         style="fill:#ffffff" />
    </clipPath>
    <clipPath
       id="clip12">
      <rect
         width="32"
         height="32"
         transform="translate(281,1197)"
         id="rect576"
         x="0"
         y="0"
         style="fill:#ffffff" />
    </clipPath>
    <clipPath
       id="clip13">
      <rect
         width="32"
         height="32"
         transform="translate(281,1252)"
         id="rect579"
         x="0"
         y="0"
         style="fill:#ffffff" />
    </clipPath>
    <clipPath
       id="clip14">
      <rect
         width="32"
         height="32"
         transform="translate(194,207)"
         id="rect582"
         x="0"
         y="0"
         style="fill:#ffffff" />
    </clipPath>
    <clipPath
       id="clip15">
      <rect
         width="32"
         height="32"
         transform="translate(194,372)"
         id="rect585"
         x="0"
         y="0"
         style="fill:#ffffff" />
    </clipPath>
    <clipPath
       id="clip16">
      <rect
         width="32"
         height="32"
         transform="translate(194,482)"
         id="rect588"
         x="0"
         y="0"
         style="fill:#ffffff" />
    </clipPath>
    <clipPath
       id="clip17">
      <rect
         width="32"
         height="32"
         transform="translate(194,537)"
         id="rect591"
         x="0"
         y="0"
         style="fill:#ffffff" />
    </clipPath>
    <clipPath
       id="clip18">
      <rect
         width="32"
         height="32"
         transform="translate(194,647)"
         id="rect594"
         x="0"
         y="0"
         style="fill:#ffffff" />
    </clipPath>
    <clipPath
       id="clip19">
      <rect
         width="32"
         height="32"
         transform="translate(194,702)"
         id="rect597"
         x="0"
         y="0"
         style="fill:#ffffff" />
    </clipPath>
    <clipPath
       id="clip20">
      <rect
         width="32"
         height="32"
         transform="translate(194,1032)"
         id="rect600"
         x="0"
         y="0"
         style="fill:#ffffff" />
    </clipPath>
    <clipPath
       id="clip21">
      <rect
         width="32"
         height="32"
         transform="translate(194,1142)"
         id="rect603"
         x="0"
         y="0"
         style="fill:#ffffff" />
    </clipPath>
    <clipPath
       id="clip22">
      <rect
         width="32"
         height="32"
         transform="translate(194,1197)"
         id="rect606"
         x="0"
         y="0"
         style="fill:#ffffff" />
    </clipPath>
    <clipPath
       id="clip23">
      <rect
         width="32"
         height="32"
         transform="translate(194,1252)"
         id="rect609"
         x="0"
         y="0"
         style="fill:#ffffff" />
    </clipPath>
    <clipPath
       id="clip13-3">
      <rect
         style="fill:#ffffff"
         y="0"
         x="0"
         width="32"
         height="32"
         transform="translate(281,1252)"
         id="rect579-6" />
    </clipPath>
    <clipPath
       id="clip12-7">
      <rect
         style="fill:#ffffff"
         y="0"
         x="0"
         width="32"
         height="32"
         transform="translate(281,1197)"
         id="rect576-5" />
    </clipPath>
    <clipPath
       id="clip11-3">
      <rect
         style="fill:#ffffff"
         y="0"
         x="0"
         width="32"
         height="32"
         transform="translate(281,1142)"
         id="rect573-5" />
    </clipPath>
    <clipPath
       id="clip10-6">
      <rect
         style="fill:#ffffff"
         y="0"
         x="0"
         width="32"
         height="32"
         transform="translate(281,1032)"
         id="rect570-2" />
    </clipPath>
    <clipPath
       id="clip9-9">
      <rect
         style="fill:#ffffff"
         y="0"
         x="0"
         width="32"
         height="32"
         transform="translate(281,702)"
         id="rect567-1" />
    </clipPath>
    <clipPath
       id="clip8-2">
      <rect
         style="fill:#ffffff"
         y="0"
         x="0"
         width="32"
         height="32"
         transform="translate(281,647)"
         id="rect564-7" />
    </clipPath>
    <clipPath
       id="clip7-0">
      <rect
         style="fill:#ffffff"
         y="0"
         x="0"
         width="32"
         height="32"
         transform="translate(281,537)"
         id="rect561-9" />
    </clipPath>
    <clipPath
       id="clip6-3">
      <rect
         style="fill:#ffffff"
         y="0"
         x="0"
         width="32"
         height="32"
         transform="translate(281,482)"
         id="rect558-6" />
    </clipPath>
    <clipPath
       id="clip5-0">
      <rect
         style="fill:#ffffff"
         y="0"
         x="0"
         width="32"
         height="32"
         transform="translate(281,372)"
         id="rect555-6" />
    </clipPath>
    <clipPath
       id="clip4-2">
      <rect
         style="fill:#ffffff"
         y="0"
         x="0"
         width="32"
         height="32"
         transform="translate(281,207)"
         id="rect552-6" />
    </clipPath>
  </defs>
</svg>
