<?xml version="1.0" encoding="UTF-8" standalone="no"?>
<svg
   xmlns:dc="http://purl.org/dc/elements/1.1/"
   xmlns:cc="http://creativecommons.org/ns#"
   xmlns:rdf="http://www.w3.org/1999/02/22-rdf-syntax-ns#"
   xmlns:svg="http://www.w3.org/2000/svg"
   xmlns="http://www.w3.org/2000/svg"
   xmlns:sodipodi="http://sodipodi.sourceforge.net/DTD/sodipodi-0.dtd"
   xmlns:inkscape="http://www.inkscape.org/namespaces/inkscape"
   width="25.938463"
   height="31.999908"
   viewBox="0 0 25.938464 31.999908"
   version="1.1"
   id="svg614"
   sodipodi:docname="construction.svg"
   inkscape:version="0.92.3 (2405546, 2018-03-11)"
   style="fill:none">
  <metadata
     id="metadata618">
    <rdf:RDF>
      <cc:Work
         rdf:about="">
        <dc:format>image/svg+xml</dc:format>
        <dc:type
           rdf:resource="http://purl.org/dc/dcmitype/StillImage" />
        <dc:title></dc:title>
      </cc:Work>
    </rdf:RDF>
  </metadata>
  <sodipodi:namedview
     pagecolor="#ffffff"
     bordercolor="#666666"
     borderopacity="1"
     objecttolerance="10"
     gridtolerance="10"
     guidetolerance="10"
     inkscape:pageopacity="0"
     inkscape:pageshadow="2"
     inkscape:window-width="1920"
     inkscape:window-height="1043"
     id="namedview616"
     showgrid="false"
     inkscape:zoom="1.9153768"
     inkscape:cx="-64.191486"
     inkscape:cy="94.476127"
     inkscape:window-x="0"
     inkscape:window-y="0"
     inkscape:window-maximized="1"
     inkscape:current-layer="svg614" />
  <g
     clip-path="url(#clip5)"
     id="g98"
     transform="translate(-284.03079,-372)">
    <path
       d="m 308.962,373.008 c -1.344,-1.344 -3.518,-1.344 -4.861,0 l -4.305,4.304 c -1.11,1.111 -1.3,2.798 -0.57,4.106 l -2.419,2.419 c -0.176,0.176 -0.275,0.414 -0.275,0.663 v 3.736 c -1.179,1.203 -0.55,0.569 -2.407,2.426 -0.183,0.183 -0.423,0.275 -0.663,0.275 -0.828,0 -1.255,-1.008 -0.663,-1.601 l 2.417,-2.416 -2.583,-2.583 c -0.48,-0.48 -1.293,-0.306 -1.537,0.324 l -7,18.061 c -0.294,0.759 0.458,1.509 1.217,1.211 l 17.998,-7.062 c 0.628,-0.246 0.798,-1.058 0.321,-1.535 l -5.225,-5.225 v -5.223 l 2.144,-2.144 c 1.309,0.729 2.994,0.541 4.106,-0.571 l 4.305,-4.304 c 1.346,-1.347 1.34,-3.521 0,-4.861 z"
       id="path96"
       inkscape:connector-curvature="0"
       style="fill:#535e73" />
  </g>
  <defs
     id="defs612">
    <clipPath
       id="clip0">
      <rect
         width="16"
         height="16"
         transform="translate(0,312)"
         id="rect540"
         x="0"
         y="0"
         style="fill:#ffffff" />
    </clipPath>
    <clipPath
       id="clip1">
      <rect
         width="16"
         height="16"
         transform="matrix(-1,0,0,1,16,168)"
         id="rect543"
         x="0"
         y="0"
         style="fill:#ffffff" />
    </clipPath>
    <clipPath
       id="clip2">
      <rect
         width="16"
         height="16"
         transform="translate(0,240)"
         id="rect546"
         x="0"
         y="0"
         style="fill:#ffffff" />
    </clipPath>
    <clipPath
       id="clip3">
      <rect
         width="16"
         height="16"
         transform="translate(0,456)"
         id="rect549"
         x="0"
         y="0"
         style="fill:#ffffff" />
    </clipPath>
    <clipPath
       id="clip4">
      <rect
         width="32"
         height="32"
         transform="translate(281,207)"
         id="rect552"
         x="0"
         y="0"
         style="fill:#ffffff" />
    </clipPath>
    <clipPath
       id="clip5">
      <rect
         width="32"
         height="32"
         transform="translate(281,372)"
         id="rect555"
         x="0"
         y="0"
         style="fill:#ffffff" />
    </clipPath>
    <clipPath
       id="clip6">
      <rect
         width="32"
         height="32"
         transform="translate(281,482)"
         id="rect558"
         x="0"
         y="0"
         style="fill:#ffffff" />
    </clipPath>
    <clipPath
       id="clip7">
      <rect
         width="32"
         height="32"
         transform="translate(281,537)"
         id="rect561"
         x="0"
         y="0"
         style="fill:#ffffff" />
    </clipPath>
    <clipPath
       id="clip8">
      <rect
         width="32"
         height="32"
         transform="translate(281,647)"
         id="rect564"
         x="0"
         y="0"
         style="fill:#ffffff" />
    </clipPath>
    <clipPath
       id="clip9">
      <rect
         width="32"
         height="32"
         transform="translate(281,702)"
         id="rect567"
         x="0"
         y="0"
         style="fill:#ffffff" />
    </clipPath>
    <clipPath
       id="clip10">
      <rect
         width="32"
         height="32"
         transform="translate(281,1032)"
         id="rect570"
         x="0"
         y="0"
         style="fill:#ffffff" />
    </clipPath>
    <clipPath
       id="clip11">
      <rect
         width="32"
         height="32"
         transform="translate(281,1142)"
         id="rect573"
         x="0"
         y="0"
         style="fill:#ffffff" />
    </clipPath>
    <clipPath
       id="clip12">
      <rect
         width="32"
         height="32"
         transform="translate(281,1197)"
         id="rect576"
         x="0"
         y="0"
         style="fill:#ffffff" />
    </clipPath>
    <clipPath
       id="clip13">
      <rect
         width="32"
         height="32"
         transform="translate(281,1252)"
         id="rect579"
         x="0"
         y="0"
         style="fill:#ffffff" />
    </clipPath>
    <clipPath
       id="clip14">
      <rect
         width="32"
         height="32"
         transform="translate(194,207)"
         id="rect582"
         x="0"
         y="0"
         style="fill:#ffffff" />
    </clipPath>
    <clipPath
       id="clip15">
      <rect
         width="32"
         height="32"
         transform="translate(194,372)"
         id="rect585"
         x="0"
         y="0"
         style="fill:#ffffff" />
    </clipPath>
    <clipPath
       id="clip16">
      <rect
         width="32"
         height="32"
         transform="translate(194,482)"
         id="rect588"
         x="0"
         y="0"
         style="fill:#ffffff" />
    </clipPath>
    <clipPath
       id="clip17">
      <rect
         width="32"
         height="32"
         transform="translate(194,537)"
         id="rect591"
         x="0"
         y="0"
         style="fill:#ffffff" />
    </clipPath>
    <clipPath
       id="clip18">
      <rect
         width="32"
         height="32"
         transform="translate(194,647)"
         id="rect594"
         x="0"
         y="0"
         style="fill:#ffffff" />
    </clipPath>
    <clipPath
       id="clip19">
      <rect
         width="32"
         height="32"
         transform="translate(194,702)"
         id="rect597"
         x="0"
         y="0"
         style="fill:#ffffff" />
    </clipPath>
    <clipPath
       id="clip20">
      <rect
         width="32"
         height="32"
         transform="translate(194,1032)"
         id="rect600"
         x="0"
         y="0"
         style="fill:#ffffff" />
    </clipPath>
    <clipPath
       id="clip21">
      <rect
         width="32"
         height="32"
         transform="translate(194,1142)"
         id="rect603"
         x="0"
         y="0"
         style="fill:#ffffff" />
    </clipPath>
    <clipPath
       id="clip22">
      <rect
         width="32"
         height="32"
         transform="translate(194,1197)"
         id="rect606"
         x="0"
         y="0"
         style="fill:#ffffff" />
    </clipPath>
    <clipPath
       id="clip23">
      <rect
         width="32"
         height="32"
         transform="translate(194,1252)"
         id="rect609"
         x="0"
         y="0"
         style="fill:#ffffff" />
    </clipPath>
    <clipPath
       id="clip13-3">
      <rect
         style="fill:#ffffff"
         y="0"
         x="0"
         width="32"
         height="32"
         transform="translate(281,1252)"
         id="rect579-6" />
    </clipPath>
    <clipPath
       id="clip12-7">
      <rect
         style="fill:#ffffff"
         y="0"
         x="0"
         width="32"
         height="32"
         transform="translate(281,1197)"
         id="rect576-5" />
    </clipPath>
    <clipPath
       id="clip11-3">
      <rect
         style="fill:#ffffff"
         y="0"
         x="0"
         width="32"
         height="32"
         transform="translate(281,1142)"
         id="rect573-5" />
    </clipPath>
    <clipPath
       id="clip10-6">
      <rect
         style="fill:#ffffff"
         y="0"
         x="0"
         width="32"
         height="32"
         transform="translate(281,1032)"
         id="rect570-2" />
    </clipPath>
    <clipPath
       id="clip9-9">
      <rect
         style="fill:#ffffff"
         y="0"
         x="0"
         width="32"
         height="32"
         transform="translate(281,702)"
         id="rect567-1" />
    </clipPath>
    <clipPath
       id="clip8-2">
      <rect
         style="fill:#ffffff"
         y="0"
         x="0"
         width="32"
         height="32"
         transform="translate(281,647)"
         id="rect564-7" />
    </clipPath>
    <clipPath
       id="clip7-0">
      <rect
         style="fill:#ffffff"
         y="0"
         x="0"
         width="32"
         height="32"
         transform="translate(281,537)"
         id="rect561-9" />
    </clipPath>
    <clipPath
       id="clip6-3">
      <rect
         style="fill:#ffffff"
         y="0"
         x="0"
         width="32"
         height="32"
         transform="translate(281,482)"
         id="rect558-6" />
    </clipPath>
    <clipPath
       id="clip5-0">
      <rect
         style="fill:#ffffff"
         y="0"
         x="0"
         width="32"
         height="32"
         transform="translate(281,372)"
         id="rect555-6" />
    </clipPath>
    <clipPath
       id="clip4-2">
      <rect
         style="fill:#ffffff"
         y="0"
         x="0"
         width="32"
         height="32"
         transform="translate(281,207)"
         id="rect552-6" />
    </clipPath>
  </defs>
</svg>
