<?xml version="1.0" encoding="UTF-8" standalone="no"?>
<svg
   xmlns:dc="http://purl.org/dc/elements/1.1/"
   xmlns:cc="http://creativecommons.org/ns#"
   xmlns:rdf="http://www.w3.org/1999/02/22-rdf-syntax-ns#"
   xmlns:svg="http://www.w3.org/2000/svg"
   xmlns="http://www.w3.org/2000/svg"
   xmlns:sodipodi="http://sodipodi.sourceforge.net/DTD/sodipodi-0.dtd"
   xmlns:inkscape="http://www.inkscape.org/namespaces/inkscape"
   width="27.780001"
   height="32"
   viewBox="0 0 27.780001 32"
   version="1.1"
   id="svg614"
   sodipodi:docname="master_w.svg"
   inkscape:version="0.92.3 (2405546, 2018-03-11)"
   style="fill:none">
  <metadata
     id="metadata618">
    <rdf:RDF>
      <cc:Work
         rdf:about="">
        <dc:format>image/svg+xml</dc:format>
        <dc:type
           rdf:resource="http://purl.org/dc/dcmitype/StillImage" />
        <dc:title></dc:title>
      </cc:Work>
    </rdf:RDF>
  </metadata>
  <sodipodi:namedview
     pagecolor="#ffffff"
     bordercolor="#666666"
     borderopacity="1"
     objecttolerance="10"
     gridtolerance="10"
     guidetolerance="10"
     inkscape:pageopacity="0"
     inkscape:pageshadow="2"
     inkscape:window-width="1920"
     inkscape:window-height="1043"
     id="namedview616"
     showgrid="false"
     inkscape:zoom="1.9153768"
     inkscape:cx="-63.270698"
     inkscape:cy="41.545178"
     inkscape:window-x="0"
     inkscape:window-y="0"
     inkscape:window-maximized="1"
     inkscape:current-layer="svg614" />
  <g
     id="g5139"
     transform="translate(-283.11,-152)"
     style="fill:#ffffff">
    <path
       id="path44"
       d="m 308.545,184 h 2.345 v -8.205 l -2.345,-0.668 z"
       inkscape:connector-curvature="0"
       style="fill:#ffffff" />
    <path
       id="path46"
       d="m 296.063,180.189 c -2.298,-0.281 -4.012,-1.618 -4.989,-3.911 -0.395,-0.928 -0.595,-1.851 -0.696,-2.552 l -3.048,0.868 V 184 h 8.733 z"
       inkscape:connector-curvature="0"
       style="fill:#ffffff" />
    <path
       id="path48"
       d="m 306.67,174.594 -3.048,-0.868 c -0.101,0.701 -0.301,1.624 -0.696,2.552 -0.977,2.293 -2.691,3.63 -4.988,3.911 V 184 h 8.732 z"
       inkscape:connector-curvature="0"
       style="fill:#ffffff" />
    <path
       id="path50"
       d="m 285.455,175.127 -2.345,0.668 V 184 h 2.345 z"
       inkscape:connector-curvature="0"
       style="fill:#ffffff" />
    <path
       id="path52"
       d="m 301.182,175.588 c 0.116,-0.267 0.212,-0.537 0.291,-0.799 -1.309,0.784 -2.839,1.236 -4.473,1.236 -1.634,0 -3.164,-0.452 -4.473,-1.236 0.079,0.262 0.175,0.532 0.292,0.799 0.813,1.872 2.181,2.782 4.181,2.782 2,0 3.368,-0.91 4.182,-2.782 z"
       inkscape:connector-curvature="0"
       style="fill:#ffffff" />
    <path
       id="path54"
       d="m 297,174.15 c 3.781,0 6.856,-3.076 6.856,-6.857 v -2.519 h -13.712 v 2.519 c 0,3.781 3.075,6.857 6.856,6.857 z"
       inkscape:connector-curvature="0"
       style="fill:#ffffff" />
    <path
       id="path56"
       d="m 290.149,158.679 h 3.452 V 153.8 c -1.986,0.79 -3.361,2.683 -3.452,4.879 z"
       inkscape:connector-curvature="0"
       style="fill:#ffffff" />
    <path
       id="path58"
       d="m 300.399,153.8 v 4.879 h 3.452 c -0.092,-2.196 -1.466,-4.088 -3.452,-4.879 z"
       inkscape:connector-curvature="0"
       style="fill:#ffffff" />
    <path
       id="path60"
       d="m 295.476,152 h 3.048 v 6.679 h -3.048 z"
       inkscape:connector-curvature="0"
       style="fill:#ffffff" />
    <path
       id="path62"
       d="m 288.034,160.554 h 17.932 v 2.345 h -17.932 z"
       inkscape:connector-curvature="0"
       style="fill:#ffffff" />
  </g>
  <defs
     id="defs612">
    <clipPath
       id="clip0">
      <rect
         width="16"
         height="16"
         transform="translate(0,312)"
         id="rect540"
         x="0"
         y="0"
         style="fill:#ffffff" />
    </clipPath>
    <clipPath
       id="clip1">
      <rect
         width="16"
         height="16"
         transform="matrix(-1,0,0,1,16,168)"
         id="rect543"
         x="0"
         y="0"
         style="fill:#ffffff" />
    </clipPath>
    <clipPath
       id="clip2">
      <rect
         width="16"
         height="16"
         transform="translate(0,240)"
         id="rect546"
         x="0"
         y="0"
         style="fill:#ffffff" />
    </clipPath>
    <clipPath
       id="clip3">
      <rect
         width="16"
         height="16"
         transform="translate(0,456)"
         id="rect549"
         x="0"
         y="0"
         style="fill:#ffffff" />
    </clipPath>
    <clipPath
       id="clip4">
      <rect
         width="32"
         height="32"
         transform="translate(281,207)"
         id="rect552"
         x="0"
         y="0"
         style="fill:#ffffff" />
    </clipPath>
    <clipPath
       id="clip5">
      <rect
         width="32"
         height="32"
         transform="translate(281,372)"
         id="rect555"
         x="0"
         y="0"
         style="fill:#ffffff" />
    </clipPath>
    <clipPath
       id="clip6">
      <rect
         width="32"
         height="32"
         transform="translate(281,482)"
         id="rect558"
         x="0"
         y="0"
         style="fill:#ffffff" />
    </clipPath>
    <clipPath
       id="clip7">
      <rect
         width="32"
         height="32"
         transform="translate(281,537)"
         id="rect561"
         x="0"
         y="0"
         style="fill:#ffffff" />
    </clipPath>
    <clipPath
       id="clip8">
      <rect
         width="32"
         height="32"
         transform="translate(281,647)"
         id="rect564"
         x="0"
         y="0"
         style="fill:#ffffff" />
    </clipPath>
    <clipPath
       id="clip9">
      <rect
         width="32"
         height="32"
         transform="translate(281,702)"
         id="rect567"
         x="0"
         y="0"
         style="fill:#ffffff" />
    </clipPath>
    <clipPath
       id="clip10">
      <rect
         width="32"
         height="32"
         transform="translate(281,1032)"
         id="rect570"
         x="0"
         y="0"
         style="fill:#ffffff" />
    </clipPath>
    <clipPath
       id="clip11">
      <rect
         width="32"
         height="32"
         transform="translate(281,1142)"
         id="rect573"
         x="0"
         y="0"
         style="fill:#ffffff" />
    </clipPath>
    <clipPath
       id="clip12">
      <rect
         width="32"
         height="32"
         transform="translate(281,1197)"
         id="rect576"
         x="0"
         y="0"
         style="fill:#ffffff" />
    </clipPath>
    <clipPath
       id="clip13">
      <rect
         width="32"
         height="32"
         transform="translate(281,1252)"
         id="rect579"
         x="0"
         y="0"
         style="fill:#ffffff" />
    </clipPath>
    <clipPath
       id="clip14">
      <rect
         width="32"
         height="32"
         transform="translate(194,207)"
         id="rect582"
         x="0"
         y="0"
         style="fill:#ffffff" />
    </clipPath>
    <clipPath
       id="clip15">
      <rect
         width="32"
         height="32"
         transform="translate(194,372)"
         id="rect585"
         x="0"
         y="0"
         style="fill:#ffffff" />
    </clipPath>
    <clipPath
       id="clip16">
      <rect
         width="32"
         height="32"
         transform="translate(194,482)"
         id="rect588"
         x="0"
         y="0"
         style="fill:#ffffff" />
    </clipPath>
    <clipPath
       id="clip17">
      <rect
         width="32"
         height="32"
         transform="translate(194,537)"
         id="rect591"
         x="0"
         y="0"
         style="fill:#ffffff" />
    </clipPath>
    <clipPath
       id="clip18">
      <rect
         width="32"
         height="32"
         transform="translate(194,647)"
         id="rect594"
         x="0"
         y="0"
         style="fill:#ffffff" />
    </clipPath>
    <clipPath
       id="clip19">
      <rect
         width="32"
         height="32"
         transform="translate(194,702)"
         id="rect597"
         x="0"
         y="0"
         style="fill:#ffffff" />
    </clipPath>
    <clipPath
       id="clip20">
      <rect
         width="32"
         height="32"
         transform="translate(194,1032)"
         id="rect600"
         x="0"
         y="0"
         style="fill:#ffffff" />
    </clipPath>
    <clipPath
       id="clip21">
      <rect
         width="32"
         height="32"
         transform="translate(194,1142)"
         id="rect603"
         x="0"
         y="0"
         style="fill:#ffffff" />
    </clipPath>
    <clipPath
       id="clip22">
      <rect
         width="32"
         height="32"
         transform="translate(194,1197)"
         id="rect606"
         x="0"
         y="0"
         style="fill:#ffffff" />
    </clipPath>
    <clipPath
       id="clip23">
      <rect
         width="32"
         height="32"
         transform="translate(194,1252)"
         id="rect609"
         x="0"
         y="0"
         style="fill:#ffffff" />
    </clipPath>
    <clipPath
       id="clip13-3">
      <rect
         style="fill:#ffffff"
         y="0"
         x="0"
         width="32"
         height="32"
         transform="translate(281,1252)"
         id="rect579-6" />
    </clipPath>
    <clipPath
       id="clip12-7">
      <rect
         style="fill:#ffffff"
         y="0"
         x="0"
         width="32"
         height="32"
         transform="translate(281,1197)"
         id="rect576-5" />
    </clipPath>
    <clipPath
       id="clip11-3">
      <rect
         style="fill:#ffffff"
         y="0"
         x="0"
         width="32"
         height="32"
         transform="translate(281,1142)"
         id="rect573-5" />
    </clipPath>
    <clipPath
       id="clip10-6">
      <rect
         style="fill:#ffffff"
         y="0"
         x="0"
         width="32"
         height="32"
         transform="translate(281,1032)"
         id="rect570-2" />
    </clipPath>
    <clipPath
       id="clip9-9">
      <rect
         style="fill:#ffffff"
         y="0"
         x="0"
         width="32"
         height="32"
         transform="translate(281,702)"
         id="rect567-1" />
    </clipPath>
    <clipPath
       id="clip8-2">
      <rect
         style="fill:#ffffff"
         y="0"
         x="0"
         width="32"
         height="32"
         transform="translate(281,647)"
         id="rect564-7" />
    </clipPath>
    <clipPath
       id="clip7-0">
      <rect
         style="fill:#ffffff"
         y="0"
         x="0"
         width="32"
         height="32"
         transform="translate(281,537)"
         id="rect561-9" />
    </clipPath>
    <clipPath
       id="clip6-3">
      <rect
         style="fill:#ffffff"
         y="0"
         x="0"
         width="32"
         height="32"
         transform="translate(281,482)"
         id="rect558-6" />
    </clipPath>
    <clipPath
       id="clip5-0">
      <rect
         style="fill:#ffffff"
         y="0"
         x="0"
         width="32"
         height="32"
         transform="translate(281,372)"
         id="rect555-6" />
    </clipPath>
    <clipPath
       id="clip4-2">
      <rect
         style="fill:#ffffff"
         y="0"
         x="0"
         width="32"
         height="32"
         transform="translate(281,207)"
         id="rect552-6" />
    </clipPath>
  </defs>
</svg>
